<svg width="50" height="50" viewBox="0 0 50 50" fill="none" xmlns="http://www.w3.org/2000/svg">
<rect width="50" height="50" fill="#2E2E2E"/>
<rect width="1440" height="2177" transform="translate(-1189 -55)" fill="white"/>
<circle cx="25" cy="25" r="25" fill="#FF2B67"/>
<path d="M33.0001 25C33.0001 25.6312 32.4884 26.1428 31.8572 26.1428H26.5463C26.3235 26.1428 26.1429 26.3234 26.1429 26.5462V31.8571C26.1429 32.4883 25.6313 33 25.0001 33C24.3689 33 23.8572 32.4883 23.8572 31.8571V26.5462C23.8572 26.3234 23.6766 26.1428 23.4539 26.1428H18.1429C17.5117 26.1428 17 25.6312 17 25C17 24.3688 17.5117 23.8571 18.1429 23.8571H23.4539C23.6766 23.8571 23.8572 23.6765 23.8572 23.4538V18.1429C23.8572 17.5117 24.3689 17 25.0001 17C25.6313 17 26.1429 17.5117 26.1429 18.1429V23.4538C26.1429 23.6765 26.3235 23.8571 26.5463 23.8571H31.8572C32.4884 23.8571 33.0001 24.3688 33.0001 25Z" fill="white"/>
</svg>
