<svg width="62" height="59" viewBox="0 0 62 59" fill="none" xmlns="http://www.w3.org/2000/svg">
<path opacity="0.4" d="M57.9999 0.999978H18.9999C18.5943 0.951737 18.1831 0.996141 17.7972 1.12985C17.4112 1.26355 17.0606 1.48308 16.7718 1.77189C16.483 2.0607 16.2635 2.41128 16.1298 2.79721C15.9961 3.18315 15.9517 3.59439 15.9999 3.99998V16H42.9999C43.4055 15.9517 43.8167 15.9961 44.2027 16.1298C44.5886 16.2636 44.9392 16.4831 45.228 16.7719C45.5168 17.0607 45.7363 17.4113 45.87 17.7972C46.0037 18.1832 46.0482 18.5944 45.9999 19V34H48.9999L55.5999 42.4C55.9907 42.9317 56.5458 43.3198 57.1794 43.5041C57.813 43.6885 58.4897 43.6587 59.1047 43.4196C59.7198 43.1804 60.2388 42.7451 60.5814 42.1812C60.924 41.6172 61.0711 40.956 60.9999 40.3V3.99998C61.0481 3.59439 61.0037 3.18315 60.87 2.79721C60.7363 2.41128 60.5168 2.0607 60.228 1.77189C59.9392 1.48308 59.5886 1.26355 59.2027 1.12985C58.8167 0.996141 58.4055 0.951737 57.9999 0.999978Z" fill="#FF2B67"/>
<path opacity="0.4" d="M12.9999 31C14.6568 31 15.9999 29.6569 15.9999 28C15.9999 26.3431 14.6568 25 12.9999 25C11.3431 25 9.99991 26.3431 9.99991 28C9.99991 29.6569 11.3431 31 12.9999 31Z" fill="#FF2B67"/>
<path opacity="0.4" d="M25 31C26.6569 31 28 29.6569 28 28C28 26.3431 26.6569 25 25 25C23.3431 25 22 26.3431 22 28C22 29.6569 23.3431 31 25 31Z" fill="#FF2B67"/>
<path d="M42.9999 16H3.9999C3.59432 15.9517 3.18308 15.9961 2.79714 16.1298C2.4112 16.2636 2.06063 16.4831 1.77181 16.7719C1.483 17.0607 1.26348 17.4113 1.12977 17.7972C0.996065 18.1832 0.951661 18.5944 0.999902 19V55.3C0.928729 55.956 1.07584 56.6172 1.41845 57.1812C1.76106 57.7451 2.28005 58.1804 2.89506 58.4196C3.51007 58.6588 4.18678 58.6885 4.82039 58.5042C5.454 58.3198 6.00916 57.9317 6.3999 57.4L12.9999 49H42.9999C43.4055 49.0482 43.8167 49.0038 44.2027 48.8701C44.5886 48.7364 44.9392 48.5169 45.228 48.2281C45.5168 47.9393 45.7363 47.5887 45.87 47.2028C46.0038 46.8168 46.0482 46.4056 45.9999 46V19C46.0482 18.5944 46.0038 18.1832 45.87 17.7972C45.7363 17.4113 45.5168 17.0607 45.228 16.7719C44.9392 16.4831 44.5886 16.2636 44.2027 16.1298C43.8167 15.9961 43.4055 15.9517 42.9999 16ZM12.9999 31C12.2043 31 11.4412 30.6839 10.8786 30.1213C10.316 29.5587 9.9999 28.7956 9.9999 28C9.9999 27.2043 10.316 26.4413 10.8786 25.8787C11.4412 25.3161 12.2043 25 12.9999 25C13.7956 25 14.5586 25.3161 15.1212 25.8787C15.6838 26.4413 15.9999 27.2043 15.9999 28C15.9999 28.7956 15.6838 29.5587 15.1212 30.1213C14.5586 30.6839 13.7956 31 12.9999 31ZM24.9999 31C24.2043 31 23.4412 30.6839 22.8786 30.1213C22.316 29.5587 21.9999 28.7956 21.9999 28C21.9999 27.2043 22.316 26.4413 22.8786 25.8787C23.4412 25.3161 24.2043 25 24.9999 25C25.7956 25 26.5586 25.3161 27.1212 25.8787C27.6838 26.4413 27.9999 27.2043 27.9999 28C27.9999 28.7956 27.6838 29.5587 27.1212 30.1213C26.5586 30.6839 25.7956 31 24.9999 31Z" fill="#FF2B67"/>
</svg>
