<svg width="28" height="27" viewBox="0 0 28 27" fill="none" xmlns="http://www.w3.org/2000/svg">
<path d="M25.9999 5.00001H1.99994C1.81968 4.97857 1.6369 4.9983 1.46537 5.05773C1.29385 5.11715 1.13804 5.21472 1.00967 5.34308C0.881314 5.47144 0.783748 5.62725 0.724323 5.79878C0.664897 5.97031 0.645162 6.15308 0.666603 6.33334V25C0.645162 25.1803 0.664897 25.363 0.724323 25.5346C0.783748 25.7061 0.881314 25.8619 1.00967 25.9903C1.13804 26.1186 1.29385 26.2162 1.46537 26.2756C1.6369 26.335 1.81968 26.3548 1.99994 26.3333H25.9999C26.1802 26.3548 26.363 26.335 26.5345 26.2756C26.706 26.2162 26.8618 26.1186 26.9902 25.9903C27.1186 25.8619 27.2161 25.7061 27.2755 25.5346C27.335 25.363 27.3547 25.1803 27.3333 25V19.6667H17.9999C17.8197 19.6881 17.6369 19.6684 17.4654 19.609C17.2938 19.5495 17.138 19.452 17.0097 19.3236C16.8813 19.1952 16.7837 19.0394 16.7243 18.8679C16.6649 18.6964 16.6452 18.5136 16.6666 18.3333V13C16.6452 12.8197 16.6649 12.637 16.7243 12.4654C16.7837 12.2939 16.8813 12.1381 17.0097 12.0097C17.138 11.8814 17.2938 11.7838 17.4654 11.7244C17.6369 11.665 17.8197 11.6452 17.9999 11.6667H27.3333V6.33334C27.3547 6.15308 27.335 5.97031 27.2755 5.79878C27.2161 5.62725 27.1186 5.47144 26.9902 5.34308C26.8618 5.21472 26.706 5.11715 26.5345 5.05773C26.363 4.9983 26.1802 4.97857 25.9999 5.00001Z" fill="#FF2B67"/>
<path opacity="0.4" d="M17.9999 11.6667C17.8197 11.6452 17.6369 11.665 17.4654 11.7244C17.2938 11.7838 17.138 11.8814 17.0097 12.0097C16.8813 12.1381 16.7837 12.2939 16.7243 12.4654C16.6649 12.637 16.6452 12.8197 16.6666 13V18.3333C16.6452 18.5136 16.6649 18.6964 16.7243 18.8679C16.7837 19.0394 16.8813 19.1952 17.0097 19.3236C17.138 19.452 17.2938 19.5495 17.4654 19.6089C17.6369 19.6684 17.8197 19.6881 17.9999 19.6667H27.3333V11.6667H17.9999Z" fill="#FF2B67"/>
<path opacity="0.4" d="M18.1337 0.20001L8.66699 5.00001H22.0003L19.867 0.866677C19.7214 0.55201 19.4591 0.306408 19.1355 0.181951C18.8119 0.0574946 18.4525 0.0639724 18.1337 0.20001Z" fill="#FF2B67"/>
</svg>
