<svg width="60" height="57" viewBox="0 0 60 57" fill="none" xmlns="http://www.w3.org/2000/svg">
<path d="M8.99998 18.0001C8.60543 18.0127 8.21292 17.9386 7.85009 17.7831C7.48726 17.6276 7.16294 17.3945 6.89998 17.1001L0.899976 11.1001C0.350295 10.5393 0.0424042 9.78531 0.0424042 9.00005C0.0424042 8.21479 0.350295 7.46084 0.899976 6.90005C1.46076 6.35037 2.21472 6.04248 2.99998 6.04248C3.78523 6.04248 4.53919 6.35037 5.09998 6.90005L8.99998 10.8001L18.9 0.900052C19.4608 0.350371 20.2147 0.0424805 21 0.0424805C21.7852 0.0424805 22.5392 0.350371 23.1 0.900052C23.6497 1.46084 23.9575 2.21479 23.9575 3.00005C23.9575 3.78531 23.6497 4.53927 23.1 5.10005L11.1 17.1001C10.837 17.3945 10.5127 17.6276 10.1499 17.7831C9.78703 17.9386 9.39452 18.0127 8.99998 18.0001Z" fill="#FF2B67"/>
<path d="M57 6H30C28.3431 6 27 7.34315 27 9V15C27 16.6569 28.3431 18 30 18H57C58.6569 18 60 16.6569 60 15V9C60 7.34315 58.6569 6 57 6Z" fill="#FF2B67"/>
<path opacity="0.4" d="M57 27H30C28.3431 27 27 28.3431 27 30V36C27 37.6569 28.3431 39 30 39H57C58.6569 39 60 37.6569 60 36V30C60 28.3431 58.6569 27 57 27Z" fill="#FF2B67"/>
<path opacity="0.4" d="M57 45H30C28.3431 45 27 46.3431 27 48V54C27 55.6569 28.3431 57 30 57H57C58.6569 57 60 55.6569 60 54V48C60 46.3431 58.6569 45 57 45Z" fill="#FF2B67"/>
<path opacity="0.4" d="M15 27H9C7.34315 27 6 28.3431 6 30V36C6 37.6569 7.34315 39 9 39H15C16.6569 39 18 37.6569 18 36V30C18 28.3431 16.6569 27 15 27Z" fill="#FF2B67"/>
<path opacity="0.4" d="M15 45H9C7.34315 45 6 46.3431 6 48V54C6 55.6569 7.34315 57 9 57H15C16.6569 57 18 55.6569 18 54V48C18 46.3431 16.6569 45 15 45Z" fill="#FF2B67"/>
</svg>
