<svg width="14" height="14" viewBox="0 0 14 14" fill="none" xmlns="http://www.w3.org/2000/svg">
<path d="M1.66642 1H12.3332C12.7014 1 12.9998 1.29843 12.9998 1.66658L13 2.72379C13 2.90065 12.9298 3.07025 12.8047 3.1953L8.52835 7.4714C8.40335 7.5964 8.33309 7.766 8.33309 7.9428V12.1461C8.33309 12.5799 7.92548 12.8981 7.50475 12.7929L6.17142 12.4596C5.87462 12.3854 5.66642 12.1187 5.66642 11.8128V7.9428C5.66642 7.766 5.59618 7.5964 5.47116 7.4714L1.19502 3.19526C1.06999 3.07024 0.999756 2.90067 0.999756 2.72386V1.66667C0.999756 1.29848 1.29823 1 1.66642 1Z" stroke="white" stroke-width="1.5" stroke-linecap="round" stroke-linejoin="round"/>
</svg>
