<svg width="146" height="146" viewBox="0 0 146 146" fill="none" xmlns="http://www.w3.org/2000/svg">
<g filter="url(#filter0_d_242_301)">
<rect x="48" y="46" width="50" height="50" rx="25" fill="white"/>
</g>
<path d="M84.9878 71.2245C84.9878 70.2413 84.9096 69.5238 84.7403 68.7797H73.7291V73.2176H80.1924C80.0621 74.3205 79.3585 75.9815 77.7947 77.0976L77.7728 77.2462L81.2543 79.9964L81.4955 80.0209C83.7108 77.9347 84.9878 74.8653 84.9878 71.2245Z" fill="#4285F4"/>
<path d="M73.7291 82.9176C76.8956 82.9176 79.5539 81.8545 81.4955 80.0209L77.7947 77.0976C76.8044 77.8018 75.4752 78.2934 73.7291 78.2934C70.6277 78.2934 67.9955 76.2074 67.0572 73.324L66.9196 73.3359L63.2995 76.1927L63.2521 76.3269C65.1807 80.2334 69.1421 82.9176 73.7291 82.9176Z" fill="#34A853"/>
<path d="M67.0571 73.324C66.8096 72.5799 66.6663 71.7826 66.6663 70.9588C66.6663 70.1349 66.8096 69.3377 67.0441 68.5936L67.0375 68.4351L63.372 65.5324L63.2521 65.5906C62.4572 67.2117 62.0012 69.0321 62.0012 70.9588C62.0012 72.8855 62.4572 74.7058 63.2521 76.3269L67.0571 73.324Z" fill="#FBBC05"/>
<path d="M73.7291 63.624C75.9313 63.624 77.4168 64.594 78.2638 65.4046L81.5737 62.1093C79.5409 60.1826 76.8956 59 73.7291 59C69.1421 59 65.1807 61.6841 63.2521 65.5906L67.0441 68.5936C67.9955 65.7102 70.6277 63.624 73.7291 63.624Z" fill="#EB4335"/>
<defs>
<filter id="filter0_d_242_301" x="0" y="0" width="146" height="146" filterUnits="userSpaceOnUse" color-interpolation-filters="sRGB">
<feFlood flood-opacity="0" result="BackgroundImageFix"/>
<feColorMatrix in="SourceAlpha" type="matrix" values="0 0 0 0 0 0 0 0 0 0 0 0 0 0 0 0 0 0 127 0" result="hardAlpha"/>
<feOffset dy="2"/>
<feGaussianBlur stdDeviation="24"/>
<feColorMatrix type="matrix" values="0 0 0 0 0 0 0 0 0 0 0 0 0 0 0 0 0 0 0.1 0"/>
<feBlend mode="normal" in2="BackgroundImageFix" result="effect1_dropShadow_242_301"/>
<feBlend mode="normal" in="SourceGraphic" in2="effect1_dropShadow_242_301" result="shape"/>
</filter>
</defs>
</svg>
