<svg width="47" height="44" viewBox="0 0 47 44" fill="none" xmlns="http://www.w3.org/2000/svg">
<path opacity="0.4" d="M42.9999 0.999978H3.99992C3.59433 0.951737 3.18309 0.996141 2.79715 1.12985C2.41122 1.26355 2.06064 1.48308 1.77183 1.77189C1.48302 2.0607 1.26349 2.41128 1.12979 2.79721C0.99608 3.18315 0.951676 3.59439 0.999917 3.99998V16H27.9999C28.4055 15.9517 28.8167 15.9961 29.2027 16.1298C29.5886 16.2636 29.9392 16.4831 30.228 16.7719C30.5168 17.0607 30.7363 17.4113 30.87 17.7972C31.0037 18.1832 31.0482 18.5944 30.9999 19V34H33.9999L40.5999 42.4C40.9907 42.9317 41.5458 43.3198 42.1794 43.5041C42.813 43.6885 43.4897 43.6587 44.1047 43.4196C44.7198 43.1804 45.2388 42.7451 45.5814 42.1812C45.924 41.6172 46.0711 40.956 45.9999 40.3V3.99998C46.0481 3.59439 46.0037 3.18315 45.87 2.79721C45.7363 2.41128 45.5168 2.0607 45.228 1.77189C44.9392 1.48308 44.5886 1.26355 44.2027 1.12985C43.8167 0.996141 43.4055 0.951737 42.9999 0.999978Z" fill="#FF2B67"/>
</svg>
