<svg width="47" height="44" viewBox="0 0 47 44" fill="none" xmlns="http://www.w3.org/2000/svg">
<path d="M42.9999 0.999978H3.9999C3.59432 0.951737 3.18308 0.996142 2.79714 1.12985C2.4112 1.26356 2.06063 1.48308 1.77181 1.77189C1.483 2.0607 1.26348 2.41128 1.12977 2.79722C0.996065 3.18315 0.951661 3.5944 0.999902 3.99998V40.3C0.928729 40.956 1.07584 41.6172 1.41845 42.1812C1.76106 42.7451 2.28005 43.1804 2.89506 43.4196C3.51007 43.6588 4.18678 43.6885 4.82039 43.5042C5.454 43.3198 6.00916 42.9317 6.3999 42.4L12.9999 34H42.9999C43.4055 34.0482 43.8167 34.0038 44.2027 33.8701C44.5886 33.7364 44.9392 33.5169 45.228 33.2281C45.5168 32.9393 45.7363 32.5887 45.87 32.2028C46.0038 31.8168 46.0482 31.4056 45.9999 31V3.99998C46.0482 3.5944 46.0038 3.18315 45.87 2.79722C45.7363 2.41128 45.5168 2.0607 45.228 1.77189C44.9392 1.48308 44.5886 1.26356 44.2027 1.12985C43.8167 0.996142 43.4055 0.951737 42.9999 0.999978ZM12.9999 16C12.2043 16 11.4412 15.6839 10.8786 15.1213C10.316 14.5587 9.9999 13.7956 9.9999 13C9.9999 12.2043 10.316 11.4413 10.8786 10.8787C11.4412 10.3161 12.2043 9.99998 12.9999 9.99998C13.7956 9.99998 14.5586 10.3161 15.1212 10.8787C15.6838 11.4413 15.9999 12.2043 15.9999 13C15.9999 13.7956 15.6838 14.5587 15.1212 15.1213C14.5586 15.6839 13.7956 16 12.9999 16ZM24.9999 16C24.2043 16 23.4412 15.6839 22.8786 15.1213C22.316 14.5587 21.9999 13.7956 21.9999 13C21.9999 12.2043 22.316 11.4413 22.8786 10.8787C23.4412 10.3161 24.2043 9.99998 24.9999 9.99998C25.7956 9.99998 26.5586 10.3161 27.1212 10.8787C27.6838 11.4413 27.9999 12.2043 27.9999 13C27.9999 13.7956 27.6838 14.5587 27.1212 15.1213C26.5586 15.6839 25.7956 16 24.9999 16Z" fill="#FF2B67"/>
</svg>
