<svg width="28" height="28" viewBox="0 0 28 28" fill="none" xmlns="http://www.w3.org/2000/svg">
<path opacity="0.4" d="M7.33317 16.6667H20.6665C22.4346 16.6667 24.1303 17.369 25.3806 18.6193C26.6308 19.8695 27.3332 21.5652 27.3332 23.3333V26C27.3332 26.3536 27.1927 26.6928 26.9426 26.9428C26.6926 27.1929 26.3535 27.3333 25.9998 27.3333H1.99984C1.64622 27.3333 1.30708 27.1929 1.05703 26.9428C0.80698 26.6928 0.666504 26.3536 0.666504 26V23.3333C0.666504 21.5652 1.36888 19.8695 2.61913 18.6193C3.86937 17.369 5.56506 16.6667 7.33317 16.6667Z" fill="#FF2B67"/>
<path d="M13.9997 14C17.6816 14 20.6663 11.0152 20.6663 7.33332C20.6663 3.65142 17.6816 0.666656 13.9997 0.666656C10.3178 0.666656 7.33301 3.65142 7.33301 7.33332C7.33301 11.0152 10.3178 14 13.9997 14Z" fill="#FF2B67"/>
</svg>
