<svg width="62" height="60" viewBox="0 0 62 60" fill="none" xmlns="http://www.w3.org/2000/svg">
<path opacity="0.4" d="M61 3V9C61.0419 10.1932 60.8378 11.3822 60.4003 12.4931C59.9629 13.604 59.3014 14.613 58.4572 15.4572C57.613 16.3014 56.604 16.9628 55.4931 17.4003C54.3822 17.8378 53.1932 18.0419 52 18V3C51.9324 2.22706 51.5946 1.50264 51.046 0.954004C50.4974 0.405365 49.7729 0.0675865 49 0H58C58.7729 0.0675865 59.4974 0.405365 60.046 0.954004C60.5946 1.50264 60.9324 2.22706 61 3Z" fill="#FF2B67"/>
<path d="M52 3V21C52 26.5695 49.7875 31.911 45.8492 35.8492C41.911 39.7875 36.5695 42 31 42C25.4305 42 20.089 39.7875 16.1508 35.8492C12.2125 31.911 10 26.5695 10 21V3C10 2.20435 10.3161 1.44129 10.8787 0.87868C11.4413 0.31607 12.2044 0 13 0H49C49.7729 0.0675865 50.4974 0.405365 51.046 0.954004C51.5946 1.50264 51.9324 2.22706 52 3Z" fill="#FF2B67"/>
<path opacity="0.4" d="M12.9999 0C12.2043 0 11.4412 0.31607 10.8786 0.87868C10.316 1.44129 9.99993 2.20435 9.99993 3V18C8.80674 18.0419 7.6177 17.8378 6.50681 17.4003C5.39593 16.9628 4.38697 16.3014 3.54274 15.4572C2.69851 14.613 2.03708 13.604 1.59962 12.4931C1.16215 11.3822 0.958023 10.1932 0.999929 9V3C0.999929 2.20435 1.316 1.44129 1.87861 0.87868C2.44122 0.31607 3.20428 0 3.99993 0H12.9999Z" fill="#FF2B67"/>
<path opacity="0.4" d="M30.9998 42C26.84 41.9853 22.8035 43.4118 19.5766 46.0371C16.3498 48.6623 14.1318 52.3242 13.2998 56.4C13.2586 56.8337 13.3037 57.2713 13.4324 57.6875C13.5611 58.1037 13.771 58.4903 14.0499 58.8249C14.3288 59.1596 14.6712 59.4358 15.0574 59.6374C15.4435 59.8391 15.8658 59.9623 16.2998 60H45.6998C46.1339 59.9623 46.5561 59.8391 46.9423 59.6374C47.3285 59.4358 47.6709 59.1596 47.9498 58.8249C48.2287 58.4903 48.4386 58.1037 48.5673 57.6875C48.696 57.2713 48.7411 56.8337 48.6998 56.4C47.8679 52.3242 45.6499 48.6623 42.4231 46.0371C39.1962 43.4118 35.1597 41.9853 30.9998 42Z" fill="#FF2B67"/>
</svg>
