<svg width="22" height="28" viewBox="0 0 22 28" fill="none" xmlns="http://www.w3.org/2000/svg">
<path opacity="0.4" d="M16.3333 3.33332V0.666656H5.6666V3.33332C5.64516 3.51358 5.6649 3.69636 5.72432 3.86788C5.78375 4.03941 5.88131 4.19522 6.00967 4.32358C6.13804 4.45194 6.29385 4.54951 6.46537 4.60894C6.6369 4.66836 6.81968 4.6881 6.99994 4.66666H14.9999C15.1802 4.6881 15.363 4.66836 15.5345 4.60894C15.706 4.54951 15.8618 4.45194 15.9902 4.32358C16.1186 4.19522 16.2161 4.03941 16.2755 3.86788C16.335 3.69636 16.3547 3.51358 16.3333 3.33332Z" fill="#FF2B67"/>
<path d="M20.3336 0.666664H16.3336V3.33333C16.355 3.51359 16.3353 3.69636 16.2759 3.86789C16.2164 4.03942 16.1189 4.19523 15.9905 4.32359C15.8622 4.45195 15.7064 4.54952 15.5348 4.60894C15.3633 4.66837 15.1805 4.6881 15.0003 4.66666H7.00026C6.82 4.6881 6.63723 4.66837 6.4657 4.60894C6.29417 4.54952 6.13836 4.45195 6.01 4.32359C5.88164 4.19523 5.78407 4.03942 5.72465 3.86789C5.66522 3.69636 5.64549 3.51359 5.66693 3.33333V0.666664H1.66693C1.48667 0.645223 1.30389 0.664958 1.13237 0.724384C0.960839 0.783809 0.805028 0.881375 0.676667 1.00974C0.548306 1.1381 0.45074 1.29391 0.391315 1.46544C0.331889 1.63696 0.312154 1.81974 0.333595 2V26C0.312154 26.1803 0.331889 26.363 0.391315 26.5346C0.45074 26.7061 0.548306 26.8619 0.676667 26.9903C0.805028 27.1186 0.960839 27.2162 1.13237 27.2756C1.30389 27.335 1.48667 27.3548 1.66693 27.3333H20.3336C20.5139 27.3548 20.6966 27.335 20.8682 27.2756C21.0397 27.2162 21.1955 27.1186 21.3239 26.9903C21.4522 26.8619 21.5498 26.7061 21.6092 26.5346C21.6686 26.363 21.6884 26.1803 21.6669 26V2C21.6884 1.81974 21.6686 1.63696 21.6092 1.46544C21.5498 1.29391 21.4522 1.1381 21.3239 1.00974C21.1955 0.881375 21.0397 0.783809 20.8682 0.724384C20.6966 0.664958 20.5139 0.645223 20.3336 0.666664ZM9.66693 22C9.68837 22.1803 9.66863 22.363 9.60921 22.5346C9.54978 22.7061 9.45222 22.8619 9.32386 22.9903C9.19549 23.1186 9.03968 23.2162 8.86816 23.2756C8.69663 23.335 8.51385 23.3548 8.33359 23.3333H5.66693C5.48667 23.3548 5.30389 23.335 5.13237 23.2756C4.96084 23.2162 4.80503 23.1186 4.67667 22.9903C4.54831 22.8619 4.45074 22.7061 4.39131 22.5346C4.33189 22.363 4.31215 22.1803 4.33359 22V19.3333C4.31215 19.1531 4.33189 18.9703 4.39131 18.7988C4.45074 18.6272 4.54831 18.4714 4.67667 18.3431C4.80503 18.2147 4.96084 18.1171 5.13237 18.0577C5.30389 17.9983 5.48667 17.9786 5.66693 18H8.33359C8.51385 17.9786 8.69663 17.9983 8.86816 18.0577C9.03968 18.1171 9.19549 18.2147 9.32386 18.3431C9.45222 18.4714 9.54978 18.6272 9.60921 18.7988C9.66863 18.9703 9.68837 19.1531 9.66693 19.3333V22ZM9.66693 14C9.68837 14.1803 9.66863 14.363 9.60921 14.5346C9.54978 14.7061 9.45222 14.8619 9.32386 14.9903C9.19549 15.1186 9.03968 15.2162 8.86816 15.2756C8.69663 15.335 8.51385 15.3548 8.33359 15.3333H5.66693C5.48667 15.3548 5.30389 15.335 5.13237 15.2756C4.96084 15.2162 4.80503 15.1186 4.67667 14.9903C4.54831 14.8619 4.45074 14.7061 4.39131 14.5346C4.33189 14.363 4.31215 14.1803 4.33359 14V11.3333C4.31215 11.1531 4.33189 10.9703 4.39131 10.7988C4.45074 10.6272 4.54831 10.4714 4.67667 10.3431C4.80503 10.2147 4.96084 10.1171 5.13237 10.0577C5.30389 9.99829 5.48667 9.97856 5.66693 10H8.33359C8.51385 9.97856 8.69663 9.99829 8.86816 10.0577C9.03968 10.1171 9.19549 10.2147 9.32386 10.3431C9.45222 10.4714 9.54978 10.6272 9.60921 10.7988C9.66863 10.9703 9.68837 11.1531 9.66693 11.3333V14ZM16.3336 22H12.3336C11.98 22 11.6408 21.8595 11.3908 21.6095C11.1407 21.3594 11.0003 21.0203 11.0003 20.6667C11.0003 20.313 11.1407 19.9739 11.3908 19.7239C11.6408 19.4738 11.98 19.3333 12.3336 19.3333H16.3336C16.6872 19.3333 17.0264 19.4738 17.2764 19.7239C17.5265 19.9739 17.6669 20.313 17.6669 20.6667C17.6669 21.0203 17.5265 21.3594 17.2764 21.6095C17.0264 21.8595 16.6872 22 16.3336 22ZM16.3336 14H12.3336C12.1533 14.0214 11.9706 14.0017 11.799 13.9423C11.6275 13.8829 11.4717 13.7853 11.3433 13.6569C11.215 13.5286 11.1174 13.3728 11.058 13.2012C10.9986 13.0297 10.9788 12.8469 11.0003 12.6667C10.9788 12.4864 10.9986 12.3036 11.058 12.1321C11.1174 11.9606 11.215 11.8048 11.3433 11.6764C11.4717 11.548 11.6275 11.4505 11.799 11.3911C11.9706 11.3316 12.1533 11.3119 12.3336 11.3333H16.3336C16.5139 11.3119 16.6966 11.3316 16.8682 11.3911C17.0397 11.4505 17.1955 11.548 17.3239 11.6764C17.4522 11.8048 17.5498 11.9606 17.6092 12.1321C17.6686 12.3036 17.6884 12.4864 17.6669 12.6667C17.6884 12.8469 17.6686 13.0297 17.6092 13.2012C17.5498 13.3728 17.4522 13.5286 17.3239 13.6569C17.1955 13.7853 17.0397 13.8829 16.8682 13.9423C16.6966 14.0017 16.5139 14.0214 16.3336 14Z" fill="#FF2B67"/>
<path opacity="0.4" d="M8.33398 10H5.66732C4.93094 10 4.33398 10.597 4.33398 11.3333V14C4.33398 14.7364 4.93094 15.3333 5.66732 15.3333H8.33398C9.07036 15.3333 9.66732 14.7364 9.66732 14V11.3333C9.66732 10.597 9.07036 10 8.33398 10Z" fill="#FF2B67"/>
<path opacity="0.4" d="M12.3339 14H16.3339C16.5142 14.0214 16.697 14.0017 16.8685 13.9423C17.04 13.8828 17.1958 13.7853 17.3242 13.6569C17.4525 13.5286 17.5501 13.3727 17.6095 13.2012C17.669 13.0297 17.6887 12.8469 17.6673 12.6667C17.6887 12.4864 17.669 12.3036 17.6095 12.1321C17.5501 11.9606 17.4525 11.8048 17.3242 11.6764C17.1958 11.548 17.04 11.4505 16.8685 11.391C16.697 11.3316 16.5142 11.3119 16.3339 11.3333H12.3339C12.1537 11.3119 11.9709 11.3316 11.7994 11.391C11.6278 11.4505 11.472 11.548 11.3437 11.6764C11.2153 11.8048 11.1177 11.9606 11.0583 12.1321C10.9989 12.3036 10.9791 12.4864 11.0006 12.6667C10.9791 12.8469 10.9989 13.0297 11.0583 13.2012C11.1177 13.3727 11.2153 13.5286 11.3437 13.6569C11.472 13.7853 11.6278 13.8828 11.7994 13.9423C11.9709 14.0017 12.1537 14.0214 12.3339 14Z" fill="#FF2B67"/>
<path opacity="0.4" d="M16.3333 19.3333H12.3333C11.9797 19.3333 11.6406 19.4738 11.3905 19.7238C11.1405 19.9739 11 20.313 11 20.6666C11 21.0203 11.1405 21.3594 11.3905 21.6095C11.6406 21.8595 11.9797 22 12.3333 22H16.3333C16.687 22 17.0261 21.8595 17.2761 21.6095C17.5262 21.3594 17.6667 21.0203 17.6667 20.6666C17.6667 20.313 17.5262 19.9739 17.2761 19.7238C17.0261 19.4738 16.687 19.3333 16.3333 19.3333Z" fill="#FF2B67"/>
<path opacity="0.4" d="M8.33398 18H5.66732C4.93094 18 4.33398 18.597 4.33398 19.3333V22C4.33398 22.7364 4.93094 23.3333 5.66732 23.3333H8.33398C9.07036 23.3333 9.66732 22.7364 9.66732 22V19.3333C9.66732 18.597 9.07036 18 8.33398 18Z" fill="#FF2B67"/>
</svg>
