<svg width="493" height="217" viewBox="0 0 493 217" fill="none" xmlns="http://www.w3.org/2000/svg">
<g filter="url(#filter0_d_196_17)">
<rect x="63.1051" y="55.083" width="373" height="76" rx="38" transform="rotate(4 63.1051 55.083)" fill="white"/>
<circle cx="108.337" cy="96.3387" r="16" transform="rotate(4 108.337 96.3387)" fill="#FF2B67"/>
<path d="M115.592 96.8461C115.458 98.7702 114.564 100.562 113.109 101.828C111.653 103.093 109.754 103.728 107.83 103.594C105.906 103.459 104.114 102.566 102.849 101.11C101.583 99.6544 100.948 97.7556 101.082 95.8314" stroke="white" stroke-width="3.125"/>
<path d="M145.747 89.3875L141.574 81.6683L144.116 81.8461L146.98 87.5177L146.988 87.5183L150.587 82.2986L153.156 82.4782L147.932 89.5226L147.614 94.073L145.431 93.9204L145.747 89.3875ZM155.994 94.9322C155.1 94.8696 154.305 94.5997 153.61 94.1223C152.921 93.6453 152.397 93.0301 152.039 92.2767C151.681 91.5175 151.532 90.6995 151.594 89.8227C151.655 88.9518 151.915 88.1653 152.375 87.4633C152.836 86.7613 153.44 86.222 154.189 85.8456C154.944 85.4696 155.771 85.3131 156.671 85.376C157.577 85.4394 158.378 85.7097 159.073 86.1871C159.767 86.6645 160.294 87.2828 160.652 88.0421C161.01 88.8013 161.159 89.6164 161.098 90.4873C161.037 91.3641 160.776 92.1535 160.315 92.8555C159.855 93.5575 159.245 94.0963 158.484 94.4719C157.73 94.8421 156.9 94.9955 155.994 94.9322ZM156.15 92.9607C156.652 92.9958 157.111 92.9075 157.525 92.6956C157.945 92.4842 158.284 92.1731 158.542 91.7623C158.805 91.352 158.956 90.8779 158.994 90.3402C159.031 89.8083 158.947 89.3208 158.743 88.8777C158.546 88.4293 158.254 88.0711 157.867 87.8033C157.481 87.5296 157.039 87.3753 156.543 87.3406C156.046 87.3059 155.587 87.3971 155.167 87.6144C154.747 87.8259 154.404 88.1397 154.14 88.5559C153.883 88.9666 153.735 89.438 153.698 89.9699C153.66 90.5076 153.741 90.9978 153.939 91.4404C154.143 91.8835 154.435 92.2387 154.816 92.5062C155.202 92.774 155.647 92.9255 156.15 92.9607ZM166.664 95.6783C165.828 95.6198 165.103 95.4164 164.487 95.0679C163.877 94.7139 163.414 94.1911 163.099 93.4994C162.783 92.8078 162.661 91.9446 162.733 90.91L163.07 86.0966L165.174 86.2438L164.842 90.9958C164.784 91.8317 164.917 92.4813 165.243 92.9446C165.575 93.4024 166.092 93.6559 166.793 93.705C167.495 93.754 168.039 93.5718 168.426 93.1584C168.814 92.7449 169.036 92.1232 169.094 91.2932L169.427 86.5411L171.54 86.6889L171.203 91.5023C171.131 92.5369 170.89 93.3747 170.481 94.0157C170.072 94.6508 169.542 95.1012 168.889 95.3669C168.236 95.6325 167.494 95.7363 166.664 95.6783ZM181.587 96.7218C180.71 96.6605 179.93 96.3915 179.247 95.915C178.569 95.4388 178.055 94.8213 177.702 94.0625C177.35 93.3037 177.204 92.4888 177.265 91.6179C177.326 90.7528 177.583 89.969 178.038 89.2666C178.492 88.5642 179.088 88.0243 179.825 87.6471C180.568 87.2644 181.378 87.1037 182.255 87.165C183.009 87.2178 183.686 87.4148 184.284 87.7563C184.883 88.0918 185.372 88.5372 185.75 89.0923C186.129 89.6415 186.38 90.2552 186.503 90.9334L184.337 90.782C184.172 90.2829 183.894 89.8934 183.502 89.6135C183.117 89.3339 182.658 89.1756 182.126 89.1384C181.682 89.1073 181.256 89.1921 180.848 89.3926C180.441 89.5874 180.103 89.8897 179.833 90.2996C179.564 90.7096 179.409 91.198 179.37 91.765C179.33 92.3378 179.414 92.846 179.624 93.2894C179.834 93.727 180.127 94.0735 180.503 94.3288C180.879 94.5842 181.289 94.7274 181.733 94.7584C182.271 94.796 182.753 94.6976 183.181 94.4632C183.609 94.2229 183.935 93.8405 184.16 93.3158L186.317 93.4666C186.11 94.1512 185.78 94.7507 185.327 95.2653C184.881 95.7744 184.334 96.1591 183.687 96.4193C183.041 96.6737 182.341 96.7745 181.587 96.7218ZM191.398 97.4078C190.603 97.3522 189.896 97.0884 189.277 96.6164C188.658 96.1443 188.19 95.5301 187.873 94.7737C187.556 94.0173 187.428 93.2036 187.488 92.3327C187.549 91.4676 187.789 90.6827 188.208 89.9778C188.633 89.2733 189.182 88.7302 189.855 88.3485C190.534 87.9613 191.268 87.7953 192.057 87.8505C192.794 87.902 193.434 88.1083 193.979 88.4694C194.53 88.8251 194.931 89.2937 195.184 89.8753L195.291 88.3497L197.308 88.4907L196.677 97.5039L194.661 97.3629L194.767 95.8461C194.435 96.3868 193.972 96.7949 193.377 97.0705C192.788 97.3465 192.128 97.4589 191.398 97.4078ZM192.044 95.4794C192.529 95.5134 192.982 95.4217 193.402 95.2044C193.829 94.9817 194.174 94.6651 194.438 94.2548C194.702 93.8386 194.852 93.3704 194.888 92.8502C194.924 92.3358 194.837 91.8569 194.628 91.4134C194.424 90.9646 194.129 90.6003 193.744 90.3208C193.358 90.0413 192.922 89.8845 192.437 89.8506C191.952 89.8167 191.5 89.9054 191.08 90.1169C190.66 90.3225 190.315 90.6303 190.046 91.0402C189.782 91.4505 189.631 91.9304 189.593 92.4799C189.553 93.0468 189.638 93.5521 189.848 93.9955C190.058 94.439 190.356 94.7888 190.744 95.0449C191.131 95.3011 191.564 95.4459 192.044 95.4794ZM201.823 88.8065L201.725 90.2093C202.023 89.725 202.458 89.3501 203.028 89.0846C203.605 88.8136 204.236 88.7021 204.92 88.7499C206.118 88.8337 206.994 89.2768 207.549 90.0791C208.104 90.8815 208.331 91.9987 208.231 93.4308L207.891 98.288L205.77 98.1397L206.106 93.3262C206.167 92.4611 206.03 91.8143 205.696 91.3856C205.362 90.9511 204.862 90.7106 204.195 90.664C203.769 90.6342 203.367 90.7147 202.989 90.9056C202.612 91.0907 202.298 91.383 202.047 91.7825C201.802 92.1765 201.66 92.657 201.62 93.224L201.298 97.827L199.176 97.6786L199.806 88.6655L201.823 88.8065ZM214.168 89.6697L216.421 89.8273L218.136 95.4185L218.306 96.382L218.6 95.4598L221.077 90.1528L223.348 90.3116L219.105 99.0722L217.132 98.9342L214.168 89.6697ZM227.801 99.9534C226.907 99.8909 226.112 99.6209 225.417 99.1435C224.728 98.6666 224.204 98.0514 223.846 97.298C223.488 96.5387 223.339 95.7207 223.401 94.844C223.462 93.973 223.722 93.1866 224.182 92.4845C224.643 91.7825 225.247 91.2433 225.996 90.8669C226.751 90.4909 227.578 90.3343 228.478 90.3973C229.384 90.4606 230.185 90.731 230.88 91.2084C231.575 91.6857 232.101 92.304 232.459 93.0633C232.817 93.8225 232.966 94.6376 232.905 95.5085C232.844 96.3853 232.583 97.1747 232.123 97.8767C231.662 98.5788 231.052 99.1176 230.291 99.4932C229.537 99.8633 228.707 100.017 227.801 99.9534ZM227.957 97.9819C228.459 98.017 228.918 97.9287 229.332 97.7168C229.752 97.5054 230.091 97.1943 230.349 96.7835C230.612 96.3732 230.763 95.8992 230.801 95.3614C230.838 94.8295 230.754 94.342 230.55 93.899C230.353 93.4505 230.061 93.0923 229.674 92.8245C229.288 92.5508 228.846 92.3966 228.35 92.3618C227.853 92.3271 227.394 92.4184 226.974 92.6357C226.554 92.8471 226.212 93.1609 225.947 93.5771C225.69 93.9879 225.542 94.4592 225.505 94.9911C225.467 95.5288 225.548 96.019 225.746 96.4617C225.95 96.9047 226.242 97.26 226.623 97.5274C227.009 97.7952 227.454 97.9467 227.957 97.9819ZM235.304 87.7909L237.425 87.9392L236.562 100.293L234.44 100.144L235.304 87.7909ZM243.083 101.022C242.247 100.964 241.521 100.76 240.906 100.412C240.296 100.058 239.833 99.5349 239.517 98.8432C239.202 98.1515 239.08 97.2884 239.152 96.2538L239.489 91.4403L241.593 91.5875L241.261 96.3395C241.202 97.1754 241.336 97.825 241.662 98.2883C241.994 98.7462 242.511 98.9996 243.212 99.0487C243.914 99.0977 244.458 98.9155 244.845 98.5021C245.232 98.0886 245.455 97.4669 245.513 96.6369L245.845 91.8848L247.958 92.0326L247.622 96.846C247.55 97.8806 247.309 98.7184 246.9 99.3594C246.491 99.9946 245.961 100.445 245.308 100.711C244.655 100.976 243.913 101.08 243.083 101.022ZM252.272 92.3342L252.174 93.7371C252.472 93.2528 252.907 92.8779 253.477 92.6123C254.054 92.3414 254.685 92.2298 255.369 92.2776C256.567 92.3614 257.443 92.8045 257.998 93.6069C258.553 94.4092 258.78 95.5264 258.68 96.9585L258.34 101.816L256.219 101.667L256.555 96.854C256.616 95.9889 256.479 95.342 256.145 94.9134C255.811 94.4789 255.311 94.2383 254.644 94.1917C254.218 94.1619 253.816 94.2424 253.438 94.4334C253.061 94.6185 252.747 94.9107 252.496 95.3102C252.251 95.7042 252.109 96.1847 252.069 96.7517L251.747 101.355L249.625 101.206L250.256 92.1932L252.272 92.3342ZM264.276 102.231C263.417 102.171 262.72 101.884 262.186 101.371C261.653 100.852 261.433 99.9263 261.526 98.5936L261.789 94.8323L259.922 94.7017L260.049 92.878L261.917 93.0086L262.101 90.3696L264.224 90.5004L264.038 93.157L266.739 93.3458L266.611 95.1695L263.911 94.9807L263.641 98.8384C263.568 99.8847 263.967 100.438 264.838 100.499L266.232 100.597L266.109 102.359L264.276 102.231ZM276.482 98.3972C276.469 98.5959 276.437 98.8346 276.388 99.1131L269.348 98.6208C269.384 99.105 269.507 99.5306 269.717 99.8976C269.932 100.265 270.208 100.555 270.546 100.766C270.89 100.972 271.269 101.09 271.684 101.119C272.21 101.156 272.647 101.083 272.994 100.902C273.348 100.715 273.618 100.432 273.803 100.051L276.118 100.213C275.921 100.757 275.607 101.252 275.177 101.698C274.746 102.144 274.22 102.489 273.598 102.733C272.982 102.972 272.315 103.066 271.596 103.016C270.713 102.954 269.93 102.685 269.247 102.208C268.564 101.732 268.046 101.114 267.694 100.355C267.341 99.5964 267.196 98.7816 267.257 97.9106C267.317 97.0397 267.575 96.2531 268.03 95.5506C268.484 94.8482 269.083 94.3085 269.826 93.9317C270.568 93.5549 271.381 93.3973 272.264 93.4591C273.146 93.5208 273.918 93.7862 274.578 94.2553C275.239 94.7243 275.734 95.3258 276.064 96.0596C276.401 96.788 276.54 97.5672 276.482 98.3972ZM274.381 97.3252C274.375 96.9899 274.271 96.6743 274.069 96.3782C273.866 96.0762 273.593 95.831 273.248 95.6424C272.909 95.4484 272.535 95.337 272.126 95.3084C271.559 95.2688 271.039 95.391 270.567 95.6752C270.101 95.9539 269.762 96.3913 269.55 96.9873L274.381 97.3252ZM286.793 99.1182C286.779 99.3169 286.748 99.5556 286.699 99.8341L279.659 99.3418C279.695 99.826 279.818 100.252 280.027 100.619C280.243 100.986 280.519 101.276 280.857 101.487C281.2 101.693 281.58 101.811 281.995 101.84C282.521 101.877 282.958 101.804 283.305 101.623C283.659 101.436 283.928 101.153 284.114 100.772L286.428 100.934C286.232 101.478 285.918 101.973 285.487 102.419C285.057 102.865 284.531 103.21 283.908 103.454C283.293 103.693 282.625 103.787 281.906 103.737C281.024 103.675 280.241 103.406 279.558 102.929C278.874 102.453 278.357 101.835 278.004 101.076C277.652 100.317 277.506 99.5026 277.567 98.6316C277.628 97.7607 277.886 96.9741 278.34 96.2716C278.795 95.5692 279.393 95.0295 280.136 94.6527C280.879 94.2759 281.692 94.1183 282.575 94.1801C283.457 94.2418 284.229 94.5072 284.889 94.9762C285.549 95.4453 286.045 96.0468 286.375 96.7806C286.712 97.509 286.851 98.2882 286.793 99.1182ZM284.692 98.0462C284.686 97.7109 284.582 97.3953 284.379 97.0992C284.177 96.7972 283.904 96.552 283.558 96.3634C283.22 96.1694 282.846 96.058 282.436 96.0294C281.87 95.9898 281.35 96.112 280.878 96.3962C280.412 96.6749 280.073 97.1123 279.861 97.7083L284.692 98.0462ZM290.867 95.0331L290.753 96.6639C291.005 96.1704 291.346 95.7948 291.775 95.5371C292.21 95.2738 292.714 95.1622 293.287 95.2023L294.252 95.2697L294.124 97.0934L293.274 97.0339C292.789 97 292.354 97.0871 291.969 97.2951C291.584 97.5032 291.274 97.8251 291.038 98.2608C290.802 98.6966 290.662 99.2301 290.618 99.8614L290.325 104.052L288.203 103.904L288.833 94.8908L290.867 95.0331ZM298.947 97.4218L299.074 95.6069L300.871 95.7326L300.907 95.2153C300.942 94.7185 301.071 94.2547 301.295 93.824C301.519 93.3932 301.849 93.0521 302.283 92.8005C302.724 92.5435 303.266 92.4375 303.909 92.4825L305.636 92.6033L305.513 94.3656L304.321 94.2822C303.941 94.2556 303.634 94.3634 303.399 94.6054C303.171 94.8479 303.044 95.1562 303.018 95.5303L302.993 95.881L305.352 96.0459L305.225 97.8608L302.866 97.6959L302.363 104.894L300.241 104.746L300.744 97.5475L298.947 97.4218ZM309.919 105.696C309.025 105.633 308.23 105.363 307.535 104.886C306.846 104.409 306.322 103.794 305.964 103.04C305.606 102.281 305.457 101.463 305.519 100.586C305.579 99.7153 305.84 98.9288 306.3 98.2268C306.761 97.5247 307.365 96.9855 308.114 96.6091C308.868 96.2331 309.696 96.0766 310.596 96.1395C311.502 96.2029 312.302 96.4732 312.997 96.9506C313.692 97.428 314.219 98.0463 314.577 98.8055C314.935 99.5648 315.084 100.38 315.023 101.251C314.961 102.128 314.701 102.917 314.24 103.619C313.78 104.321 313.17 104.86 312.409 105.235C311.655 105.606 310.825 105.759 309.919 105.696ZM310.074 103.724C310.577 103.759 311.036 103.671 311.45 103.459C311.87 103.248 312.209 102.937 312.467 102.526C312.73 102.115 312.881 101.641 312.918 101.104C312.956 100.572 312.872 100.084 312.668 99.6412C312.471 99.1927 312.178 98.8346 311.792 98.5667C311.406 98.293 310.964 98.1388 310.467 98.1041C309.971 98.0693 309.512 98.1606 309.091 98.3779C308.671 98.5893 308.329 98.9032 308.065 99.3194C307.808 99.7301 307.66 100.201 307.623 100.733C307.585 101.271 307.665 101.761 307.864 102.204C308.068 102.647 308.36 103.002 308.741 103.27C309.127 103.537 309.572 103.689 310.074 103.724ZM319.222 97.0158L319.108 98.6466C319.36 98.1532 319.7 97.7776 320.129 97.5198C320.565 97.2566 321.069 97.145 321.642 97.185L322.606 97.2525L322.479 99.0761L321.628 99.0167C321.143 98.9827 320.708 99.0698 320.324 99.2779C319.939 99.4859 319.629 99.8078 319.393 100.244C319.157 100.679 319.017 101.213 318.972 101.844L318.679 106.035L316.558 105.887L317.188 96.8736L319.222 97.0158ZM331.776 110.387C330.8 110.319 329.996 110.101 329.363 109.734C328.737 109.367 328.284 108.912 328.005 108.37C327.725 107.834 327.595 107.261 327.614 106.651L329.613 106.791C329.677 107.312 329.882 107.729 330.231 108.041C330.584 108.359 331.138 108.545 331.892 108.598C332.518 108.642 333.04 108.558 333.46 108.346C333.886 108.141 334.206 107.846 334.421 107.462C334.635 107.083 334.76 106.646 334.795 106.149L334.859 105.228C334.521 105.78 334.07 106.18 333.506 106.429C332.943 106.671 332.314 106.768 331.618 106.72C330.782 106.661 330.045 106.41 329.407 105.966C328.774 105.516 328.295 104.937 327.969 104.227C327.648 103.517 327.517 102.756 327.573 101.943C327.63 101.131 327.867 100.387 328.285 99.7112C328.702 99.0297 329.253 98.5014 329.937 98.1263C330.621 97.7513 331.37 97.5921 332.182 97.6489C332.696 97.6849 333.161 97.8026 333.576 98.0019C333.991 98.1954 334.338 98.4399 334.617 98.7355C334.902 99.0256 335.115 99.3401 335.256 99.6789L335.363 98.1445L337.38 98.2855L336.822 106.264C336.762 107.117 336.525 107.867 336.109 108.514C335.694 109.16 335.117 109.651 334.376 109.987C333.636 110.323 332.77 110.456 331.776 110.387ZM332.141 104.906C332.627 104.94 333.079 104.851 333.499 104.64C333.919 104.428 334.26 104.129 334.522 103.742C334.79 103.356 334.941 102.926 334.974 102.452C335.006 101.99 334.919 101.55 334.714 101.13C334.508 100.71 334.209 100.366 333.817 100.098C333.43 99.8302 332.994 99.6793 332.509 99.6454C332.018 99.6111 331.563 99.6908 331.145 99.8848C330.726 100.079 330.386 100.366 330.124 100.747C329.862 101.128 329.714 101.573 329.678 102.082C329.643 102.579 329.729 103.037 329.934 103.457C330.14 103.876 330.437 104.214 330.824 104.47C331.211 104.726 331.651 104.872 332.141 104.906ZM343.324 108.032C342.429 107.969 341.635 107.699 340.94 107.222C340.251 106.745 339.727 106.13 339.368 105.376C339.01 104.617 338.862 103.799 338.923 102.922C338.984 102.051 339.245 101.265 339.705 100.563C340.165 99.8606 340.77 99.3214 341.519 98.945C342.273 98.569 343.101 98.4124 344.001 98.4754C344.907 98.5387 345.707 98.8091 346.402 99.2865C347.097 99.7639 347.624 100.382 347.982 101.141C348.34 101.901 348.488 102.716 348.427 103.587C348.366 104.463 348.105 105.253 347.645 105.955C347.185 106.657 346.575 107.196 345.814 107.571C345.06 107.941 344.23 108.095 343.324 108.032ZM343.479 106.06C343.982 106.095 344.44 106.007 344.855 105.795C345.275 105.584 345.614 105.272 345.871 104.862C346.135 104.451 346.286 103.977 346.323 103.44C346.36 102.908 346.277 102.42 346.073 101.977C345.875 101.529 345.583 101.17 345.197 100.903C344.811 100.629 344.369 100.475 343.872 100.44C343.375 100.405 342.917 100.496 342.496 100.714C342.076 100.925 341.734 101.239 341.47 101.655C341.212 102.066 341.065 102.537 341.028 103.069C340.99 103.607 341.07 104.097 341.268 104.54C341.472 104.983 341.765 105.338 342.145 105.606C342.532 105.873 342.977 106.025 343.479 106.06ZM354.038 108.781C353.144 108.718 352.349 108.448 351.654 107.971C350.965 107.494 350.441 106.879 350.083 106.125C349.724 105.366 349.576 104.548 349.637 103.671C349.698 102.8 349.959 102.014 350.419 101.312C350.879 100.61 351.484 100.071 352.233 99.6942C352.987 99.3182 353.815 99.1616 354.715 99.2246C355.621 99.2879 356.421 99.5583 357.116 100.036C357.811 100.513 358.338 101.131 358.696 101.891C359.054 102.65 359.202 103.465 359.142 104.336C359.08 105.213 358.819 106.002 358.359 106.704C357.899 107.406 357.289 107.945 356.528 108.321C355.774 108.691 354.944 108.844 354.038 108.781ZM354.193 106.809C354.696 106.844 355.154 106.756 355.569 106.544C355.989 106.333 356.328 106.022 356.585 105.611C356.849 105.201 357 104.726 357.037 104.189C357.075 103.657 356.991 103.169 356.787 102.726C356.589 102.278 356.297 101.92 355.911 101.652C355.525 101.378 355.083 101.224 354.586 101.189C354.089 101.154 353.631 101.246 353.21 101.463C352.79 101.674 352.448 101.988 352.184 102.404C351.926 102.815 351.779 103.287 351.742 103.818C351.704 104.356 351.784 104.846 351.982 105.289C352.186 105.732 352.479 106.087 352.859 106.355C353.246 106.623 353.691 106.774 354.193 106.809ZM364.375 109.504C363.539 109.445 362.803 109.182 362.166 108.715C361.535 108.242 361.058 107.627 360.735 106.87C360.418 106.114 360.29 105.297 360.351 104.42C360.413 103.544 360.653 102.756 361.072 102.057C361.491 101.352 362.049 100.809 362.745 100.429C363.441 100.049 364.216 99.889 365.069 99.9487C365.537 99.9814 365.967 100.097 366.358 100.294C366.75 100.486 367.083 100.724 367.357 101.007C367.631 101.291 367.842 101.59 367.99 101.906L368.012 100.965L368.282 97.0984L370.395 97.2462L369.532 109.591L367.515 109.45L367.621 107.933C367.293 108.427 366.845 108.825 366.278 109.126C365.716 109.427 365.082 109.553 364.375 109.504ZM364.897 107.575C365.383 107.609 365.835 107.518 366.256 107.3C366.683 107.078 367.028 106.758 367.292 106.342C367.562 105.926 367.715 105.458 367.751 104.938C367.788 104.418 367.704 103.936 367.5 103.493C367.296 103.044 366.999 102.683 366.607 102.409C366.221 102.129 365.783 101.972 365.292 101.938C364.795 101.903 364.336 101.994 363.916 102.212C363.496 102.423 363.154 102.734 362.89 103.144C362.626 103.555 362.476 104.029 362.438 104.566C362.401 105.092 362.482 105.58 362.68 106.028C362.878 106.471 363.17 106.832 363.555 107.111C363.942 107.385 364.389 107.54 364.897 107.575ZM375.879 100.978L378.158 101.137L379.521 106.977L379.641 107.523L379.667 107.524L379.871 107.001L381.981 101.404L383.55 101.514L384.803 107.284L384.946 107.894L384.972 107.895L385.226 107.279L387.382 101.782L389.617 101.938L385.945 110.739L383.981 110.601L382.513 104.631L382.504 104.63L380.193 110.337L378.282 110.203L375.879 100.978ZM394.071 111.58C393.177 111.518 392.382 111.248 391.687 110.77C390.998 110.293 390.474 109.678 390.116 108.925C389.758 108.165 389.609 107.347 389.671 106.471C389.731 105.6 389.992 104.813 390.452 104.111C390.913 103.409 391.517 102.87 392.266 102.494C393.02 102.118 393.848 101.961 394.748 102.024C395.654 102.087 396.454 102.358 397.149 102.835C397.844 103.312 398.371 103.931 398.729 104.69C399.087 105.449 399.236 106.264 399.175 107.135C399.113 108.012 398.853 108.801 398.392 109.503C397.932 110.205 397.322 110.744 396.561 111.12C395.807 111.49 394.977 111.643 394.071 111.58ZM394.226 109.609C394.729 109.644 395.188 109.555 395.602 109.344C396.022 109.132 396.361 108.821 396.619 108.41C396.882 108 397.033 107.526 397.07 106.988C397.108 106.456 397.024 105.969 396.82 105.526C396.623 105.077 396.33 104.719 395.944 104.451C395.558 104.178 395.116 104.023 394.619 103.989C394.123 103.954 393.664 104.045 393.243 104.262C392.823 104.474 392.481 104.788 392.217 105.204C391.959 105.615 391.812 106.086 391.775 106.618C391.737 107.156 391.817 107.646 392.016 108.088C392.22 108.531 392.512 108.887 392.893 109.154C393.279 109.422 393.724 109.573 394.226 109.609ZM403.374 102.9L403.26 104.531C403.512 104.038 403.852 103.662 404.281 103.404C404.717 103.141 405.221 103.029 405.794 103.07L406.758 103.137L406.631 104.961L405.78 104.901C405.295 104.867 404.86 104.954 404.476 105.162C404.091 105.37 403.781 105.692 403.545 106.128C403.309 106.564 403.168 107.097 403.124 107.729L402.831 111.92L400.71 111.771L401.34 102.758L403.374 102.9ZM413.537 112.668L411.479 108.445L409.951 109.898L409.775 112.405L407.653 112.257L408.517 99.9119L410.639 100.06L410.11 107.618L413.579 103.614L416.166 103.795L413.119 107.168L415.921 112.835L413.537 112.668ZM139.931 104.527L142.211 104.687L143.573 110.527L143.694 111.072L143.72 111.074L143.924 110.551L146.033 104.954L147.603 105.064L148.856 110.834L148.998 111.443L149.024 111.445L149.279 110.829L151.434 105.332L153.67 105.488L149.997 114.289L148.033 114.151L146.565 108.181L146.557 108.18L144.246 113.886L142.334 113.753L139.931 104.527ZM156.135 104.251C155.738 104.223 155.427 104.087 155.204 103.842C154.986 103.592 154.89 103.291 154.914 102.941C154.938 102.596 155.075 102.318 155.325 102.106C155.581 101.889 155.911 101.795 156.314 101.823C156.723 101.851 157.039 101.991 157.263 102.242C157.486 102.486 157.586 102.781 157.562 103.126C157.537 103.482 157.397 103.766 157.141 103.978C156.886 104.189 156.55 104.28 156.135 104.251ZM154.994 105.581L157.116 105.729L156.485 114.742L154.364 114.594L154.994 105.581ZM162.684 115.176C161.825 115.116 161.128 114.829 160.595 114.316C160.061 113.797 159.841 112.871 159.934 111.538L160.197 107.777L158.33 107.647L158.457 105.823L160.325 105.953L160.509 103.314L162.632 103.445L162.446 106.102L165.147 106.291L165.019 108.114L162.319 107.926L162.049 111.783C161.976 112.83 162.375 113.383 163.246 113.444L164.64 113.542L164.517 115.304L162.684 115.176ZM169.22 103.228L168.963 106.901L168.84 107.906C169.162 107.423 169.595 107.057 170.142 106.807C170.688 106.552 171.3 106.448 171.978 106.495C173.177 106.579 174.053 107.022 174.608 107.824C175.163 108.627 175.39 109.744 175.29 111.176L174.95 116.033L172.828 115.885L173.165 111.072C173.225 110.207 173.089 109.56 172.754 109.131C172.421 108.697 171.921 108.456 171.254 108.409C170.839 108.38 170.439 108.47 170.055 108.678C169.676 108.881 169.362 109.182 169.111 109.581C168.859 109.981 168.716 110.443 168.679 110.969L168.357 115.572L166.235 115.424L167.098 103.079L169.22 103.228ZM181.446 116.761C180.551 116.698 179.757 116.428 179.062 115.951C178.373 115.474 177.849 114.859 177.49 114.105C177.132 113.346 176.984 112.528 177.045 111.651C177.106 110.78 177.367 109.994 177.827 109.292C178.287 108.59 178.892 108.051 179.64 107.674C180.395 107.298 181.222 107.142 182.123 107.205C183.029 107.268 183.829 107.538 184.524 108.016C185.219 108.493 185.745 109.111 186.103 109.871C186.462 110.63 186.61 111.445 186.549 112.316C186.488 113.193 186.227 113.982 185.767 114.684C185.307 115.386 184.696 115.925 183.936 116.301C183.182 116.671 182.351 116.824 181.446 116.761ZM181.601 114.789C182.104 114.824 182.562 114.736 182.976 114.524C183.396 114.313 183.735 114.002 183.993 113.591C184.257 113.181 184.407 112.706 184.445 112.169C184.482 111.637 184.399 111.149 184.195 110.706C183.997 110.258 183.705 109.9 183.318 109.632C182.932 109.358 182.491 109.204 181.994 109.169C181.497 109.134 181.038 109.226 180.618 109.443C180.198 109.654 179.856 109.968 179.592 110.384C179.334 110.795 179.187 111.267 179.149 111.798C179.112 112.336 179.192 112.826 179.39 113.269C179.594 113.712 179.886 114.067 180.267 114.335C180.654 114.603 181.098 114.754 181.601 114.789ZM192.116 117.507C191.28 117.448 190.554 117.245 189.938 116.896C189.329 116.543 188.866 116.02 188.55 115.328C188.234 114.636 188.113 113.773 188.185 112.739L188.521 107.925L190.626 108.072L190.293 112.824C190.235 113.66 190.369 114.31 190.695 114.773C191.027 115.231 191.544 115.484 192.245 115.534C192.946 115.583 193.491 115.4 193.878 114.987C194.265 114.573 194.488 113.952 194.546 113.122L194.878 108.37L196.991 108.517L196.654 113.331C196.582 114.365 196.341 115.203 195.932 115.844C195.524 116.479 194.993 116.93 194.34 117.195C193.687 117.461 192.946 117.565 192.116 117.507ZM202.367 117.951C201.507 117.89 200.811 117.604 200.277 117.091C199.743 116.572 199.523 115.646 199.617 114.313L199.88 110.552L198.012 110.421L198.14 108.598L200.007 108.728L200.192 106.089L202.315 106.22L202.129 108.877L204.829 109.066L204.702 110.889L202.001 110.7L201.732 114.558C201.658 115.604 202.057 116.158 202.928 116.219L204.322 116.316L204.199 118.079L202.367 117.951ZM212.948 109.633L212.842 111.15C213.208 110.624 213.674 110.221 214.239 109.944C214.811 109.661 215.419 109.542 216.062 109.587C216.897 109.645 217.634 109.911 218.27 110.384C218.912 110.858 219.395 111.473 219.718 112.23C220.047 112.981 220.181 113.792 220.121 114.663C220.059 115.54 219.813 116.331 219.382 117.035C218.951 117.733 218.388 118.272 217.692 118.652C217.002 119.033 216.244 119.194 215.42 119.136C214.771 119.091 214.186 118.895 213.664 118.547C213.143 118.193 212.748 117.743 212.481 117.195L212.452 118.242L212.208 121.731L210.086 121.583L210.932 109.492L212.948 109.633ZM215.171 117.154C215.65 117.188 216.1 117.105 216.519 116.905C216.939 116.699 217.283 116.392 217.553 115.982C217.822 115.572 217.977 115.083 218.016 114.516C218.055 113.967 217.969 113.47 217.759 113.027C217.555 112.584 217.257 112.231 216.864 111.969C216.478 111.701 216.042 111.55 215.557 111.516C215.077 111.483 214.624 111.577 214.198 111.8C213.777 112.017 213.432 112.334 213.162 112.75C212.898 113.166 212.748 113.631 212.712 114.145C212.674 114.683 212.76 115.177 212.97 115.626C213.179 116.069 213.477 116.428 213.864 116.702C214.256 116.97 214.692 117.121 215.171 117.154ZM225.696 119.855C224.86 119.797 224.134 119.593 223.518 119.245C222.909 118.891 222.446 118.368 222.13 117.676C221.814 116.984 221.693 116.121 221.765 115.087L222.102 110.273L224.206 110.42L223.874 115.173C223.815 116.008 223.949 116.658 224.275 117.121C224.607 117.579 225.124 117.833 225.825 117.882C226.526 117.931 227.071 117.749 227.458 117.335C227.845 116.922 228.068 116.3 228.126 115.47L228.458 110.718L230.571 110.866L230.235 115.679C230.162 116.714 229.922 117.551 229.513 118.192C229.104 118.828 228.573 119.278 227.92 119.544C227.267 119.809 226.526 119.913 225.696 119.855ZM233.102 107.686L235.224 107.834L234.36 120.188L232.238 120.039L233.102 107.686ZM237.714 108.008L239.835 108.157L238.972 120.51L236.85 120.362L237.714 108.008ZM243.233 110.341C242.836 110.314 242.525 110.177 242.301 109.933C242.084 109.682 241.988 109.382 242.012 109.031C242.036 108.686 242.173 108.408 242.423 108.197C242.679 107.98 243.009 107.885 243.412 107.913C243.821 107.942 244.137 108.081 244.361 108.332C244.584 108.577 244.684 108.872 244.66 109.216C244.635 109.573 244.495 109.857 244.239 110.068C243.984 110.279 243.648 110.37 243.233 110.341ZM242.092 111.671L244.214 111.82L243.583 120.833L241.462 120.684L242.092 111.671ZM248.72 112.135L248.622 113.538C248.92 113.053 249.355 112.678 249.925 112.413C250.502 112.142 251.133 112.03 251.817 112.078C253.015 112.162 253.891 112.605 254.446 113.407C255.001 114.21 255.228 115.327 255.128 116.759L254.788 121.616L252.667 121.468L253.003 116.654C253.064 115.789 252.927 115.142 252.593 114.714C252.259 114.279 251.759 114.039 251.092 113.992C250.666 113.962 250.264 114.043 249.886 114.234C249.509 114.419 249.195 114.711 248.944 115.111C248.699 115.505 248.557 115.985 248.517 116.552L248.195 121.155L246.073 121.007L246.704 111.994L248.72 112.135ZM261.099 125.494C260.123 125.425 259.318 125.208 258.686 124.84C258.06 124.473 257.607 124.019 257.328 123.477C257.048 122.94 256.918 122.367 256.937 121.758L258.936 121.897C259 122.419 259.205 122.836 259.554 123.148C259.907 123.466 260.461 123.652 261.215 123.704C261.84 123.748 262.363 123.664 262.783 123.453C263.209 123.248 263.529 122.953 263.744 122.568C263.958 122.19 264.083 121.752 264.118 121.255L264.182 120.335C263.844 120.887 263.393 121.287 262.829 121.535C262.266 121.778 261.637 121.875 260.941 121.826C260.105 121.768 259.368 121.517 258.729 121.072C258.097 120.623 257.618 120.043 257.292 119.333C256.971 118.624 256.839 117.862 256.896 117.05C256.953 116.238 257.19 115.493 257.607 114.818C258.025 114.136 258.576 113.608 259.26 113.233C259.944 112.858 260.692 112.699 261.505 112.756C262.019 112.792 262.484 112.909 262.899 113.109C263.314 113.302 263.661 113.547 263.94 113.842C264.225 114.132 264.438 114.447 264.579 114.785L264.686 113.251L266.703 113.392L266.145 121.371C266.085 122.224 265.848 122.974 265.432 123.62C265.017 124.267 264.439 124.758 263.699 125.094C262.959 125.43 262.092 125.563 261.099 125.494ZM261.464 120.013C261.95 120.047 262.402 119.958 262.822 119.746C263.242 119.535 263.583 119.236 263.845 118.849C264.113 118.462 264.264 118.032 264.297 117.559C264.329 117.097 264.242 116.656 264.037 116.237C263.831 115.817 263.532 115.473 263.14 115.205C262.753 114.937 262.317 114.786 261.832 114.752C261.341 114.718 260.886 114.797 260.467 114.991C260.049 115.185 259.708 115.473 259.447 115.854C259.185 116.235 259.037 116.68 259.001 117.188C258.966 117.685 259.052 118.143 259.257 118.563C259.463 118.983 259.759 119.321 260.147 119.577C260.534 119.833 260.973 119.978 261.464 120.013ZM277.03 123.445C276.136 123.382 275.342 123.112 274.647 122.635C273.957 122.158 273.434 121.543 273.075 120.789C272.717 120.03 272.569 119.212 272.63 118.335C272.691 117.464 272.952 116.678 273.412 115.976C273.872 115.274 274.477 114.735 275.225 114.358C275.98 113.982 276.807 113.826 277.707 113.889C278.613 113.952 279.414 114.222 280.109 114.7C280.804 115.177 281.33 115.795 281.688 116.555C282.047 117.314 282.195 118.129 282.134 119C282.073 119.877 281.812 120.666 281.352 121.368C280.892 122.07 280.281 122.609 279.521 122.984C278.767 123.355 277.936 123.508 277.03 123.445ZM277.186 121.473C277.689 121.508 278.147 121.42 278.561 121.208C278.981 120.997 279.32 120.686 279.578 120.275C279.842 119.864 279.992 119.39 280.03 118.853C280.067 118.321 279.984 117.833 279.78 117.39C279.582 116.942 279.29 116.584 278.903 116.316C278.517 116.042 278.076 115.888 277.579 115.853C277.082 115.818 276.623 115.91 276.203 116.127C275.783 116.338 275.441 116.652 275.177 117.068C274.919 117.479 274.771 117.95 274.734 118.482C274.697 119.02 274.777 119.51 274.975 119.953C275.179 120.396 275.471 120.751 275.852 121.019C276.239 121.287 276.683 121.438 277.186 121.473ZM287.701 124.191C286.865 124.132 286.139 123.929 285.523 123.58C284.914 123.226 284.451 122.704 284.135 122.012C283.819 121.32 283.697 120.457 283.77 119.423L284.106 114.609L286.211 114.756L285.878 119.508C285.82 120.344 285.954 120.994 286.28 121.457C286.612 121.915 287.128 122.168 287.83 122.217C288.531 122.267 289.076 122.084 289.463 121.671C289.85 121.257 290.073 120.636 290.131 119.806L290.463 115.054L292.576 115.201L292.239 120.015C292.167 121.049 291.926 121.887 291.517 122.528C291.109 123.163 290.578 123.614 289.925 123.879C289.272 124.145 288.531 124.249 287.701 124.191ZM297.952 124.635C297.092 124.574 296.396 124.288 295.862 123.775C295.328 123.256 295.108 122.33 295.201 120.997L295.465 117.236L293.597 117.105L293.725 115.282L295.592 115.412L295.777 112.773L297.9 112.904L297.714 115.561L300.414 115.749L300.287 117.573L297.586 117.384L297.317 121.242C297.243 122.288 297.642 122.842 298.513 122.903L299.907 123L299.784 124.763L297.952 124.635ZM309.595 125.449C308.736 125.389 308.039 125.102 307.505 124.589C306.972 124.07 306.752 123.144 306.845 121.811L307.108 118.05L305.24 117.92L305.368 116.096L307.235 116.226L307.42 113.587L309.543 113.718L309.357 116.375L312.058 116.564L311.93 118.387L309.23 118.199L308.96 122.056C308.887 123.103 309.286 123.656 310.157 123.717L311.551 123.815L311.427 125.577L309.595 125.449ZM316.131 113.501L315.874 117.174L315.751 118.179C316.072 117.696 316.506 117.33 317.052 117.08C317.599 116.825 318.211 116.721 318.889 116.768C320.087 116.852 320.964 117.295 321.519 118.097C322.073 118.9 322.301 120.017 322.201 121.449L321.861 126.306L319.739 126.158L320.076 121.345C320.136 120.48 319.999 119.833 319.665 119.404C319.331 118.97 318.831 118.729 318.165 118.682C317.75 118.653 317.35 118.743 316.966 118.951C316.587 119.154 316.273 119.455 316.021 119.854C315.77 120.254 315.626 120.716 315.59 121.242L315.268 125.845L313.146 125.697L314.009 113.352L316.131 113.501ZM333.182 122.411C333.168 122.61 333.136 122.848 333.088 123.127L326.047 122.634C326.084 123.119 326.207 123.544 326.416 123.911C326.631 124.279 326.908 124.568 327.245 124.78C327.589 124.986 327.969 125.104 328.384 125.133C328.91 125.169 329.346 125.097 329.694 124.916C330.048 124.729 330.317 124.445 330.502 124.065L332.817 124.227C332.62 124.771 332.307 125.266 331.876 125.712C331.445 126.157 330.919 126.502 330.297 126.747C329.681 126.985 329.014 127.08 328.295 127.029C327.412 126.968 326.629 126.699 325.946 126.222C325.263 125.745 324.745 125.128 324.393 124.369C324.041 123.61 323.895 122.795 323.956 121.924C324.017 121.053 324.274 120.267 324.729 119.564C325.183 118.862 325.782 118.322 326.525 117.945C327.268 117.569 328.081 117.411 328.963 117.473C329.846 117.534 330.617 117.8 331.278 118.269C331.938 118.738 332.433 119.339 332.764 120.073C333.1 120.802 333.24 121.581 333.182 122.411ZM331.081 121.339C331.075 121.004 330.97 120.688 330.768 120.392C330.566 120.09 330.292 119.845 329.947 119.656C329.608 119.462 329.234 119.351 328.825 119.322C328.258 119.282 327.739 119.405 327.266 119.689C326.8 119.968 326.462 120.405 326.25 121.001L331.081 121.339ZM342.866 131.211C341.89 131.143 341.086 130.925 340.453 130.558C339.827 130.191 339.374 129.737 339.095 129.194C338.815 128.658 338.685 128.085 338.704 127.475L340.703 127.615C340.767 128.136 340.972 128.553 341.321 128.865C341.674 129.184 342.228 129.369 342.982 129.422C343.608 129.466 344.13 129.382 344.55 129.171C344.976 128.965 345.296 128.671 345.511 128.286C345.725 127.908 345.85 127.47 345.885 126.973L345.949 126.052C345.611 126.604 345.16 127.005 344.596 127.253C344.033 127.496 343.404 127.593 342.708 127.544C341.872 127.485 341.135 127.234 340.497 126.79C339.864 126.341 339.385 125.761 339.059 125.051C338.738 124.341 338.607 123.58 338.663 122.768C338.72 121.955 338.957 121.211 339.375 120.536C339.792 119.854 340.343 119.326 341.027 118.951C341.711 118.576 342.46 118.416 343.272 118.473C343.786 118.509 344.251 118.627 344.666 118.826C345.081 119.02 345.428 119.264 345.707 119.56C345.992 119.85 346.205 120.164 346.346 120.503L346.453 118.969L348.47 119.11L347.912 127.088C347.852 127.942 347.615 128.692 347.199 129.338C346.784 129.985 346.207 130.476 345.466 130.812C344.726 131.148 343.86 131.281 342.866 131.211ZM343.231 125.73C343.717 125.764 344.169 125.675 344.589 125.464C345.009 125.253 345.35 124.953 345.612 124.566C345.88 124.18 346.031 123.75 346.064 123.276C346.096 122.815 346.01 122.374 345.804 121.954C345.598 121.535 345.299 121.191 344.907 120.922C344.52 120.655 344.084 120.504 343.599 120.47C343.108 120.435 342.653 120.515 342.235 120.709C341.816 120.903 341.476 121.191 341.214 121.572C340.952 121.953 340.804 122.398 340.768 122.906C340.733 123.403 340.819 123.861 341.024 124.281C341.23 124.7 341.527 125.038 341.914 125.295C342.301 125.551 342.741 125.696 343.231 125.73ZM351.202 115.944L353.324 116.092L352.46 128.446L350.338 128.298L351.202 115.944ZM359.026 129.178C358.131 129.116 357.337 128.846 356.642 128.368C355.953 127.892 355.429 127.276 355.07 126.523C354.712 125.764 354.564 124.946 354.625 124.069C354.686 123.198 354.947 122.412 355.407 121.709C355.867 121.007 356.472 120.468 357.22 120.092C357.975 119.716 358.802 119.559 359.703 119.622C360.609 119.686 361.409 119.956 362.104 120.433C362.799 120.911 363.325 121.529 363.684 122.288C364.042 123.047 364.19 123.863 364.129 124.733C364.068 125.61 363.807 126.4 363.347 127.102C362.887 127.804 362.276 128.343 361.516 128.718C360.762 129.088 359.932 129.242 359.026 129.178ZM359.181 127.207C359.684 127.242 360.142 127.154 360.556 126.942C360.976 126.73 361.315 126.419 361.573 126.008C361.837 125.598 361.987 125.124 362.025 124.586C362.062 124.054 361.979 123.567 361.775 123.124C361.577 122.675 361.285 122.317 360.898 122.049C360.512 121.776 360.071 121.622 359.574 121.587C359.077 121.552 358.619 121.643 358.198 121.861C357.778 122.072 357.436 122.386 357.172 122.802C356.914 123.213 356.767 123.684 356.729 124.216C356.692 124.754 356.772 125.244 356.97 125.687C357.174 126.13 357.466 126.485 357.847 126.752C358.234 127.02 358.678 127.172 359.181 127.207ZM364.821 120.253L367.075 120.411L368.789 126.002L368.96 126.966L369.254 126.043L371.73 120.736L374.001 120.895L369.759 129.656L367.786 129.518L364.821 120.253ZM383.28 125.914C383.266 126.113 383.235 126.351 383.186 126.63L376.146 126.138C376.182 126.622 376.305 127.047 376.514 127.415C376.73 127.782 377.006 128.071 377.344 128.283C377.687 128.489 378.067 128.607 378.482 128.636C379.008 128.673 379.445 128.6 379.792 128.419C380.146 128.232 380.415 127.949 380.601 127.568L382.915 127.73C382.719 128.274 382.405 128.769 381.974 129.215C381.544 129.66 381.018 130.005 380.395 130.25C379.78 130.489 379.112 130.583 378.393 130.533C377.511 130.471 376.728 130.202 376.044 129.725C375.361 129.249 374.843 128.631 374.491 127.872C374.139 127.113 373.993 126.298 374.054 125.428C374.115 124.557 374.373 123.77 374.827 123.067C375.282 122.365 375.88 121.825 376.623 121.449C377.366 121.072 378.179 120.914 379.062 120.976C379.944 121.038 380.716 121.303 381.376 121.772C382.036 122.241 382.532 122.843 382.862 123.576C383.199 124.305 383.338 125.084 383.28 125.914ZM381.179 124.842C381.173 124.507 381.069 124.191 380.866 123.895C380.664 123.593 380.391 123.348 380.045 123.159C379.707 122.965 379.333 122.854 378.923 122.825C378.356 122.786 377.837 122.908 377.365 123.192C376.899 123.471 376.56 123.908 376.348 124.504L381.179 124.842ZM387.915 131.198C387.073 131.14 386.37 130.944 385.806 130.611C385.242 130.277 384.834 129.861 384.581 129.362C384.328 128.862 384.221 128.338 384.259 127.789L386.293 127.94C386.28 128.373 386.422 128.736 386.719 129.027C387.022 129.312 387.466 129.475 388.05 129.516C388.582 129.554 388.989 129.482 389.272 129.302C389.555 129.116 389.709 128.845 389.734 128.489C389.752 128.243 389.695 128.043 389.565 127.887C389.435 127.725 389.239 127.594 388.976 127.493C388.713 127.392 388.359 127.291 387.913 127.19C386.94 126.992 386.177 126.657 385.622 126.184C385.068 125.71 384.821 125.041 384.882 124.176C384.921 123.621 385.086 123.145 385.378 122.748C385.671 122.346 386.079 122.048 386.604 121.856C387.128 121.657 387.75 121.583 388.469 121.634C389.188 121.684 389.814 121.851 390.346 122.135C390.879 122.413 391.282 122.782 391.555 123.242C391.828 123.701 391.945 124.215 391.906 124.782L389.829 124.619C389.83 124.272 389.703 123.987 389.448 123.764C389.2 123.535 388.836 123.404 388.357 123.37C387.924 123.34 387.59 123.411 387.355 123.582C387.12 123.754 386.992 123.986 386.972 124.278C386.955 124.512 386.992 124.699 387.082 124.841C387.172 124.976 387.346 125.1 387.602 125.212C387.859 125.318 388.251 125.431 388.777 125.55C389.471 125.704 390.048 125.891 390.509 126.111C390.975 126.332 391.335 126.636 391.59 127.024C391.845 127.412 391.951 127.91 391.909 128.517C391.864 129.16 391.662 129.693 391.304 130.114C390.951 130.53 390.484 130.829 389.902 131.011C389.32 131.188 388.657 131.25 387.915 131.198ZM394.211 125.198L394.616 119.412L396.799 119.564L396.394 125.36L395.91 127.872L394.331 127.762L394.211 125.198ZM394.863 131.623C394.501 131.597 394.213 131.466 394.001 131.228C393.789 130.984 393.694 130.698 393.717 130.371C393.732 130.154 393.796 129.962 393.907 129.794C394.025 129.62 394.181 129.487 394.376 129.395C394.57 129.303 394.787 129.265 395.027 129.282C395.272 129.299 395.485 129.367 395.665 129.485C395.85 129.604 395.989 129.757 396.082 129.946C396.175 130.128 396.214 130.328 396.199 130.544C396.175 130.877 396.039 131.147 395.79 131.353C395.54 131.558 395.231 131.648 394.863 131.623Z" fill="#141414"/>
</g>
<defs>
<filter id="filter0_d_196_17" x="0.360229" y="0.139648" width="492.28" height="216.721" filterUnits="userSpaceOnUse" color-interpolation-filters="sRGB">
<feFlood flood-opacity="0" result="BackgroundImageFix"/>
<feColorMatrix in="SourceAlpha" type="matrix" values="0 0 0 0 0 0 0 0 0 0 0 0 0 0 0 0 0 0 127 0" result="hardAlpha"/>
<feOffset dy="2.5"/>
<feGaussianBlur stdDeviation="30"/>
<feColorMatrix type="matrix" values="0 0 0 0 0 0 0 0 0 0 0 0 0 0 0 0 0 0 0.1 0"/>
<feBlend mode="normal" in2="BackgroundImageFix" result="effect1_dropShadow_196_17"/>
<feBlend mode="normal" in="SourceGraphic" in2="effect1_dropShadow_196_17" result="shape"/>
</filter>
</defs>
</svg>
