<svg width="18" height="13" viewBox="0 0 18 13" fill="none" xmlns="http://www.w3.org/2000/svg">
<path d="M17.654 2.77731C17.4165 2.55678 17.1031 2.43642 16.779 2.44131H4.374L3.915 0.806313C3.83168 0.566392 3.67438 0.359095 3.46575 0.214257C3.25712 0.069419 3.00791 -0.00548934 2.754 0.000313394H0.856C0.628975 0.000313394 0.411248 0.0904989 0.250717 0.25103C0.0901855 0.411561 0 0.629288 0 0.856313C0 1.08334 0.0901855 1.30107 0.250717 1.4616C0.411248 1.62213 0.628975 1.71231 0.856 1.71231H2.394L5.143 11.5123C5.19324 11.6922 5.30099 11.8507 5.44979 11.9635C5.59858 12.0764 5.78024 12.1374 5.967 12.1373H14C14.227 12.1373 14.4448 12.0471 14.6053 11.8866C14.7658 11.7261 14.856 11.5083 14.856 11.2813C14.856 11.0543 14.7658 10.8366 14.6053 10.676C14.4448 10.5155 14.227 10.4253 14 10.4253H6.615L6.209 8.97731H14.774C14.8013 8.97731 14.8287 8.97731 14.856 8.97731C15.0842 8.97305 15.307 8.90701 15.5007 8.78621C15.6944 8.66542 15.8518 8.49439 15.956 8.29131L17.905 4.00031C17.9972 3.79591 18.0225 3.56759 17.9773 3.34796C17.932 3.12832 17.8185 2.9286 17.653 2.77731H17.654ZM14.548 7.26531H5.729L4.855 4.15331H15.955L14.548 7.26531Z" fill="#202020"/>
</svg>
