<svg width="17" height="18" viewBox="0 0 17 18" fill="none" xmlns="http://www.w3.org/2000/svg">
<path d="M16.7552 15.5722L12.2952 11.1122C12.2404 11.0639 12.1791 11.0236 12.1132 10.9922C13.0801 9.73989 13.5339 8.16645 13.3823 6.59162C13.2308 5.0168 12.4853 3.55876 11.2974 2.51383C10.1094 1.4689 8.5682 0.915492 6.98691 0.966076C5.40562 1.01666 3.90292 1.66744 2.7842 2.78615C1.66549 3.90487 1.01471 5.40757 0.964123 6.98886C0.913539 8.57016 1.46695 10.1114 2.51187 11.2993C3.5568 12.4872 5.01484 13.2327 6.58967 13.3843C8.16449 13.5358 9.73794 13.082 10.9902 12.1152C11.0222 12.1807 11.0629 12.2416 11.1112 12.2962L15.5712 16.7562C15.7282 16.9132 15.9412 17.0014 16.1632 17.0014C16.3853 17.0014 16.5982 16.9132 16.7552 16.7562C16.9122 16.5992 17.0004 16.3862 17.0004 16.1642C17.0004 15.9421 16.9122 15.7292 16.7552 15.5722ZM7.20622 11.7392C6.30987 11.7392 5.43366 11.4734 4.68838 10.9754C3.94309 10.4774 3.36221 9.76961 3.0192 8.94149C2.67618 8.11338 2.58643 7.20215 2.7613 6.32302C2.93617 5.4439 3.3678 4.63638 4.00161 4.00257C4.63542 3.36875 5.44295 2.93712 6.32207 2.76225C7.20119 2.58739 8.11243 2.67713 8.94054 3.02015C9.76866 3.36317 10.4765 3.94405 10.9744 4.68933C11.4724 5.43461 11.7382 6.31083 11.7382 7.20717C11.7425 7.80351 11.6282 8.39475 11.4019 8.94652C11.1757 9.49829 10.842 9.99958 10.4203 10.4213C9.99863 10.843 9.49733 11.1766 8.94556 11.4029C8.39379 11.6291 7.80256 11.7434 7.20622 11.7392Z" fill="#202020"/>
</svg>
