<svg width="28" height="28" viewBox="0 0 28 28" fill="none" xmlns="http://www.w3.org/2000/svg">
<path opacity="0.4" d="M27.3333 1.99999V4.66666C27.352 5.19696 27.2612 5.72542 27.0668 6.21915C26.8724 6.71288 26.5784 7.16131 26.2032 7.53652C25.828 7.91173 25.3796 8.2057 24.8858 8.40013C24.3921 8.59456 23.8636 8.68528 23.3333 8.66666V1.99999C23.3033 1.65646 23.1532 1.3345 22.9093 1.09066C22.6655 0.846818 22.3435 0.696695 22 0.666656H26C26.3435 0.696695 26.6655 0.846818 26.9093 1.09066C27.1532 1.3345 27.3033 1.65646 27.3333 1.99999Z" fill="#FF2B67"/>
<path d="M23.3332 1.99999V9.99999C23.3332 12.4753 22.3498 14.8493 20.5995 16.5997C18.8492 18.35 16.4752 19.3333 13.9998 19.3333C11.5245 19.3333 9.15051 18.35 7.40017 16.5997C5.64983 14.8493 4.6665 12.4753 4.6665 9.99999V1.99999C4.6665 1.64637 4.80698 1.30723 5.05703 1.05718C5.30708 0.807132 5.64622 0.666656 5.99984 0.666656H21.9998C22.3434 0.696695 22.6653 0.846819 22.9092 1.09066C23.153 1.3345 23.3031 1.65646 23.3332 1.99999Z" fill="#FF2B67"/>
<path opacity="0.4" d="M5.99978 0.666656C5.64616 0.666656 5.30702 0.807132 5.05697 1.05718C4.80692 1.30723 4.66645 1.64637 4.66645 1.99999V8.66666C4.13614 8.68528 3.60768 8.59456 3.11395 8.40013C2.62022 8.2057 2.1718 7.91173 1.79658 7.53652C1.42137 7.16131 1.1274 6.71288 0.932973 6.21915C0.738545 5.72542 0.647821 5.19696 0.666445 4.66666V1.99999C0.666445 1.64637 0.806921 1.30723 1.05697 1.05718C1.30702 0.807132 1.64616 0.666656 1.99978 0.666656H5.99978Z" fill="#FF2B67"/>
<path opacity="0.4" d="M13.9997 19.3333C12.1509 19.3268 10.3569 19.9608 8.92273 21.1276C7.48857 22.2943 6.5028 23.9218 6.13305 25.7333C6.11472 25.9261 6.13474 26.1205 6.19196 26.3055C6.24918 26.4905 6.34245 26.6623 6.46641 26.8111C6.59036 26.9598 6.74255 27.0825 6.91417 27.1722C7.0858 27.2618 7.27348 27.3166 7.46638 27.3333H20.533C20.726 27.3166 20.9136 27.2618 21.0853 27.1722C21.2569 27.0825 21.4091 26.9598 21.533 26.8111C21.657 26.6623 21.7503 26.4905 21.8075 26.3055C21.8647 26.1205 21.8847 25.9261 21.8664 25.7333C21.4966 23.9218 20.5109 22.2943 19.0767 21.1276C17.6425 19.9608 15.8485 19.3268 13.9997 19.3333Z" fill="#FF2B67"/>
</svg>
