<svg width="113" height="40" viewBox="0 0 113 40" fill="none" xmlns="http://www.w3.org/2000/svg">
<path d="M109.783 5.41802C110.393 5.41802 110.876 5.22542 111.292 4.81113C111.709 4.39321 111.903 3.91351 111.903 3.29934C111.903 2.68882 111.709 2.20548 111.292 1.79119C110.879 1.37327 110.397 1.18066 109.786 1.18066C109.172 1.18066 108.693 1.37691 108.276 1.79119C107.86 2.20911 107.666 2.68882 107.666 3.29934C107.666 3.91351 107.86 4.39321 108.276 4.81113C108.69 5.22542 109.165 5.41802 109.783 5.41802Z" fill="#231F20"/>
<path d="M22.4961 35.2573C21.9588 34.2797 21.3739 33.2586 20.7634 32.2301C20.1456 31.198 19.4949 30.1514 18.8296 29.1266C18.2703 28.2689 17.7001 27.4331 17.1225 26.6372C17.7695 26.3937 18.391 26.1067 18.9795 25.7759C19.7545 25.3399 20.4417 24.7802 21.0193 24.1152C21.6005 23.4465 22.0648 22.6543 22.4047 21.753C22.7447 20.8481 22.9129 19.7979 22.9129 18.6277C22.9129 17.0032 22.5729 15.6077 21.9076 14.4703C21.2459 13.3401 20.3101 12.4097 19.1257 11.7047C17.9633 11.0142 16.5742 10.5091 14.9913 10.2075C13.434 9.90947 11.7269 9.75684 9.91742 9.75684C7.9617 9.75684 6.38251 9.81135 5.22005 9.92037C4.06124 10.0258 3.34841 10.1057 3.03038 10.1639C1.7546 10.3274 1.05273 11.0542 1.05273 12.2062V38.5789H4.6571V27.3968C5.16156 27.4513 5.8159 27.5094 6.59819 27.5567C7.6656 27.6221 8.98525 27.6584 10.5169 27.6584C10.9775 27.6584 11.4674 27.6439 11.9609 27.6184C12.3849 27.5966 12.8345 27.553 13.2915 27.4912C13.6607 27.9782 14.1286 28.6542 14.6769 29.5045C15.3093 30.4785 15.96 31.5324 16.6144 32.6408C17.2724 33.7528 17.8975 34.8394 18.475 35.8642C19.0526 36.8927 19.4949 37.7212 19.7874 38.3245L19.908 38.5752H24.2873L23.9401 37.9284C23.5233 37.1434 23.0371 36.2422 22.4961 35.2573ZM9.79678 24.4095C8.45154 24.4095 7.30736 24.3623 6.39348 24.2714C5.68796 24.2024 5.10673 24.1333 4.66441 24.0716V13.2637C4.92029 13.231 5.32606 13.1838 5.96943 13.1293C6.84311 13.0493 8.14814 13.0094 9.84065 13.0094C11.588 13.0094 13.0868 13.1547 14.2894 13.4418C15.4702 13.7216 16.4316 14.1178 17.1444 14.6156C17.839 15.1062 18.3507 15.6877 18.6651 16.3491C18.9832 17.025 19.144 17.7918 19.144 18.6313C19.144 20.5029 18.4604 21.8947 17.0457 22.8868C15.6054 23.8971 13.1635 24.4095 9.79678 24.4095Z" fill="#231F20"/>
<path d="M110.584 10.3565C110.317 10.2802 110.025 10.2402 109.717 10.2402C109.049 10.2402 108.555 10.4256 108.237 10.7963C107.941 11.1451 107.791 11.5921 107.791 12.1263V38.6589H111.439V10.749L111.224 10.6218C111.059 10.5237 110.851 10.4365 110.584 10.3565Z" fill="#231F20"/>
<path d="M95.4462 15.7174C96.9961 17.0839 97.7711 19.3733 97.7711 22.5895V38.6559H101.427V20.8706C101.427 19.1335 101.131 17.6181 100.538 16.328C99.9498 15.0342 99.1383 13.9549 98.1037 13.0863C97.0692 12.2178 95.8519 11.5709 94.4482 11.1457C93.0481 10.7205 91.5311 10.5098 89.908 10.5098C87.6197 10.5098 85.5433 11.0076 83.679 12.0034C81.8147 13.0028 80.3488 14.46 79.2777 16.3825C78.2066 14.3874 76.7298 12.9083 74.8509 11.9489C72.9683 10.9895 70.8444 10.5098 68.4829 10.5098C66.8196 10.5098 65.2807 10.7314 63.8586 11.1748C62.4366 11.6182 61.2011 12.2832 60.1483 13.1699C59.0955 14.0566 58.273 15.1578 57.6844 16.4697C57.0959 17.778 56.7998 19.3043 56.7998 21.0414V38.6595H60.4553V22.7567C60.4553 21.1322 60.6564 19.744 61.0622 18.5993C61.4679 17.4545 62.0528 16.5133 62.8059 15.7719C63.5625 15.0342 64.4508 14.5 65.4634 14.1657C66.476 13.8313 67.5946 13.6678 68.8156 13.6678C69.9963 13.6678 71.1039 13.8422 72.1348 14.1947C73.1657 14.5436 74.0649 15.0996 74.8216 15.8555C75.5746 16.6114 76.1778 17.5926 76.6201 18.7919C77.0661 19.9911 77.2854 21.4411 77.2854 23.1419V38.6559H80.941V23.1419C80.941 21.4448 81.1603 19.9948 81.6026 18.7919C82.0486 17.5926 82.6554 16.6114 83.4304 15.8555C84.2054 15.0996 85.112 14.5436 86.1428 14.1947C87.1773 13.8459 88.285 13.6678 89.4657 13.6678C91.9003 13.6678 93.8962 14.351 95.4462 15.7174Z" fill="#231F20"/>
<path d="M49.4964 10.738C48.7726 10.738 48.2242 10.887 47.8697 11.1814C47.5809 11.4212 47.4383 11.8973 47.4383 12.595V25.5579C47.4383 28.5088 46.7437 30.8237 45.3766 32.4372C43.9582 34.1125 41.8197 34.9593 39.0269 34.9593C36.2304 34.9593 34.0919 34.1125 32.6772 32.4372C31.3101 30.8237 30.6155 28.5124 30.6155 25.5579V11.0178L30.3852 10.9415C29.9612 10.8071 29.475 10.7344 28.9449 10.7344C28.1809 10.7344 27.618 10.8834 27.2634 11.1777C26.9783 11.4176 26.832 11.8937 26.832 12.5914V27.0224C26.832 28.8395 27.1354 30.4821 27.7276 31.9066C28.3162 33.3167 29.1423 34.5232 30.1805 35.4899C31.2223 36.4602 32.5018 37.2088 33.975 37.7139C35.492 38.23 37.1918 38.4953 39.0269 38.4953C40.862 38.4953 42.5618 38.23 44.0789 37.7139C45.5594 37.2052 46.8461 36.4565 47.9099 35.479C48.9627 34.5159 49.7815 33.3167 50.3518 31.9103C50.9293 30.4821 51.2254 28.8358 51.2254 27.0151V11.0142L50.9951 10.9415C50.5674 10.8071 50.063 10.738 49.4964 10.738Z" fill="#2CB3A1"/>
<path d="M49.3761 5.41802C49.9866 5.41802 50.4691 5.22178 50.8858 4.81113C51.3025 4.39321 51.4963 3.91351 51.4963 3.29934C51.4963 2.68882 51.3025 2.20548 50.8858 1.78756C50.4691 1.37327 49.9902 1.18066 49.3761 1.18066C48.7619 1.18066 48.2831 1.37691 47.8663 1.79119C47.4496 2.20911 47.2559 2.68518 47.2559 3.29934C47.2559 3.91351 47.4496 4.39321 47.8663 4.8075C48.2831 5.22178 48.7619 5.41802 49.3761 5.41802Z" fill="#2CB3A1"/>
<path d="M29.0401 5.41802C29.6506 5.41802 30.1331 5.22178 30.5499 4.81113C30.9666 4.39321 31.1603 3.91351 31.1603 3.29934C31.1603 2.68882 30.9666 2.20548 30.5499 1.78756C30.1331 1.37327 29.6543 1.18066 29.0401 1.18066C28.4297 1.18066 27.9471 1.37691 27.5304 1.79119C27.1137 2.20911 26.9199 2.68518 26.9199 3.29934C26.9199 3.91351 27.1137 4.39321 27.5304 4.8075C27.9471 5.22178 28.426 5.41802 29.0401 5.41802Z" fill="#2CB3A1"/>
</svg>
