<svg width="152" height="68" viewBox="0 0 152 68" fill="none" xmlns="http://www.w3.org/2000/svg">
<path d="M146.997 7.17993C147.815 7.17993 148.461 6.92473 149.019 6.3758C149.577 5.82205 149.836 5.18645 149.836 4.37268C149.836 3.56373 149.577 2.92331 149.019 2.37438C148.466 1.82063 147.819 1.56543 147.002 1.56543C146.18 1.56543 145.539 1.82545 144.981 2.37438C144.423 2.92813 144.163 3.56373 144.163 4.37268C144.163 5.18645 144.423 5.82205 144.981 6.3758C145.534 6.92473 146.17 7.17993 146.997 7.17993Z" fill="#231F20"/>
<path d="M30.1224 46.7178C29.4028 45.4225 28.6197 44.0695 27.8023 42.7068C26.9751 41.3393 26.1038 39.9525 25.213 38.5946C24.4641 37.4582 23.7005 36.3507 22.9272 35.2962C23.7935 34.9736 24.6256 34.5932 25.4137 34.155C26.4513 33.5772 27.3715 32.8357 28.1449 31.9545C28.9232 31.0685 29.5448 30.0188 30 28.8246C30.4552 27.6256 30.6803 26.234 30.6803 24.6835C30.6803 22.5312 30.2251 20.6821 29.3343 19.175C28.4484 17.6775 27.1953 16.4448 25.6095 15.5106C24.0529 14.5957 22.193 13.9264 20.0736 13.5268C17.9884 13.1319 15.7026 12.9297 13.2798 12.9297C10.6611 12.9297 8.5466 13.0019 6.99009 13.1464C5.43848 13.286 4.48402 13.3919 4.05818 13.469C2.34993 13.6857 1.41016 14.6487 1.41016 16.1751V51.1189H6.23631V36.3026C6.91178 36.3748 7.78793 36.4519 8.83539 36.5145C10.2646 36.6011 12.0316 36.6493 14.0825 36.6493C14.6992 36.6493 15.3551 36.63 16.0159 36.5963C16.5837 36.5674 17.1857 36.5096 17.7975 36.4278C18.2919 37.073 18.9184 37.9686 19.6526 39.0954C20.4994 40.3859 21.3707 41.7823 22.2468 43.2509C23.1279 44.7243 23.9648 46.1641 24.7382 47.522C25.5116 48.8847 26.1038 49.9825 26.4954 50.7818L26.6569 51.1141H32.5207L32.0558 50.257C31.4978 49.2169 30.8468 48.0227 30.1224 46.7178ZM13.1182 32.3445C11.317 32.3445 9.78496 32.2819 8.56128 32.1615C7.61661 32.07 6.83836 31.9785 6.2461 31.8967V17.5763C6.58873 17.533 7.13204 17.4704 7.9935 17.3982C9.16333 17.2922 10.9107 17.2393 13.177 17.2393C15.5166 17.2393 17.5234 17.4319 19.1338 17.8123C20.7148 18.1831 22.0021 18.7079 22.9565 19.3676C23.8865 20.0176 24.5718 20.7881 24.9927 21.6644C25.4186 22.5601 25.6339 23.5761 25.6339 24.6884C25.6339 27.1682 24.7186 29.0124 22.8244 30.3269C20.8959 31.6656 17.6262 32.3445 13.1182 32.3445Z" fill="#231F20"/>
<path d="M148.07 13.7234C147.712 13.6223 147.321 13.5693 146.91 13.5693C146.014 13.5693 145.353 13.8149 144.927 14.3061C144.531 14.7683 144.33 15.3606 144.33 16.0684V51.2241H149.215V14.2435L148.926 14.0749C148.706 13.9449 148.427 13.8294 148.07 13.7234Z" fill="#231F20"/>
<path d="M127.8 20.8259C129.876 22.6364 130.913 25.67 130.913 29.9314V51.2194H135.808V27.6539C135.808 25.3522 135.412 23.3443 134.619 21.6349C133.831 19.9207 132.744 18.4906 131.359 17.3397C129.974 16.1889 128.344 15.3318 126.464 14.7684C124.589 14.2051 122.558 13.9258 120.385 13.9258C117.321 13.9258 114.541 14.5855 112.044 15.9048C109.548 17.229 107.585 19.1599 106.151 21.7071C104.717 19.0636 102.74 17.1038 100.224 15.8326C97.7029 14.5614 94.8591 13.9258 91.6971 13.9258C89.47 13.9258 87.4094 14.2195 85.5053 14.807C83.6013 15.3944 81.9469 16.2756 80.5372 17.4505C79.1276 18.6254 78.0263 20.0844 77.2382 21.8227C76.4502 23.5561 76.0537 25.5785 76.0537 27.8802V51.2242H80.9484V30.1529C80.9484 28.0006 81.2176 26.1612 81.7609 24.6444C82.3042 23.1276 83.0874 21.8805 84.0957 20.8982C85.1089 19.9207 86.2983 19.2128 87.6541 18.7699C89.0099 18.3269 90.5077 18.1102 92.1425 18.1102C93.7235 18.1102 95.2066 18.3413 96.5869 18.8084C97.9672 19.2706 99.1713 20.0074 100.184 21.0089C101.193 22.0105 102 23.3106 102.593 24.8996C103.19 26.4886 103.484 28.4098 103.484 30.6634V51.2194H108.378V30.6634C108.378 28.4147 108.672 26.4934 109.264 24.8996C109.861 23.3106 110.674 22.0105 111.711 21.0089C112.749 20.0074 113.963 19.2706 115.343 18.8084C116.729 18.3461 118.212 18.1102 119.793 18.1102C123.052 18.1102 125.725 19.0154 127.8 20.8259Z" fill="#231F20"/>
<path d="M41.0131 58.5335C40.8271 58.3072 40.5579 58.1291 40.2202 57.9942C39.8776 57.8594 39.4811 57.792 39.021 57.792H36.001V65.5589H36.9799V62.4435H39.021C39.8727 62.4435 40.509 62.2075 40.9348 61.7453C41.3558 61.2782 41.5711 60.7389 41.5711 60.1274C41.5711 59.824 41.5271 59.5399 41.4341 59.2751C41.3411 59.0102 41.204 58.7598 41.0131 58.5335ZM40.2202 61.1241C39.9755 61.4034 39.5986 61.543 39.0846 61.543H36.975V58.6924H39.0846C39.6181 58.6924 39.9999 58.8417 40.2398 59.1258C40.4698 59.4147 40.5873 59.747 40.5873 60.1225C40.5873 60.5078 40.46 60.84 40.2202 61.1241Z" fill="#2CB3A1"/>
<path d="M49.9409 59.4341C49.7696 59.0826 49.5591 58.7696 49.3095 58.5144C49.0599 58.2544 48.7368 58.0473 48.3501 57.8932C47.9586 57.7392 47.5278 57.6621 47.0482 57.6621C46.451 57.6621 45.9322 57.7777 45.4868 58.0136C45.0364 58.2447 44.6889 58.5626 44.4393 58.9574C44.1848 59.3571 44.0037 59.7808 43.8813 60.2334C43.7589 60.6909 43.7002 61.1724 43.7002 61.6828C43.7002 62.1932 43.7589 62.6747 43.8813 63.1322C43.9988 63.5848 44.1848 64.0133 44.4393 64.4082C44.6889 64.803 45.0364 65.1208 45.4868 65.352C45.9322 65.5831 46.451 65.7035 47.0482 65.7035C47.5278 65.7035 47.9635 65.6264 48.3501 65.4723C48.7368 65.3183 49.0599 65.1064 49.3095 64.8512C49.5591 64.596 49.7696 64.283 49.9409 63.9315C50.1073 63.58 50.2297 63.214 50.2982 62.8432C50.3716 62.4725 50.4059 62.0873 50.4059 61.6876C50.4059 61.2879 50.3667 60.9075 50.2982 60.5368C50.2297 60.1564 50.1073 59.7904 49.9409 59.4341ZM49.2557 62.7566C49.1724 63.1081 49.0452 63.4355 48.8739 63.7485C48.7026 64.0567 48.4578 64.3071 48.1397 64.4949C47.8264 64.6827 47.4593 64.779 47.0482 64.779C46.6321 64.779 46.2748 64.6923 45.9566 64.5141C45.6483 64.336 45.4035 64.0952 45.2273 63.7918C45.0462 63.4885 44.919 63.1562 44.8358 62.8047C44.7477 62.4484 44.7085 62.0728 44.7085 61.6683C44.7085 61.2928 44.7526 60.9316 44.8407 60.5801C44.9288 60.2334 45.056 59.9012 45.2322 59.5882C45.4035 59.2704 45.6483 59.02 45.9566 58.8322C46.2699 58.6444 46.6321 58.5481 47.0482 58.5481C47.5964 58.5481 48.0565 58.707 48.4187 59.0248C48.7809 59.3426 49.0354 59.723 49.1724 60.1708C49.3095 60.6186 49.378 61.1194 49.378 61.6635C49.378 62.0487 49.3389 62.4051 49.2557 62.7566Z" fill="#2CB3A1"/>
<path d="M58.7808 62.8431C58.7123 63.1609 58.6634 63.4161 58.634 63.6087C58.6046 63.4402 58.5459 63.185 58.4529 62.8527L57.0432 57.792H56.265L54.87 62.8624C54.728 63.4017 54.6546 63.6761 54.6546 63.6858C54.6204 63.4643 54.5714 63.185 54.5029 62.8527L53.5337 57.792H52.5059L54.1211 65.5589H54.9238L56.4412 60.2574C56.5342 59.9492 56.5978 59.694 56.637 59.4918C56.6614 59.5929 56.7251 59.8529 56.8377 60.2574L58.3599 65.5589H59.1333L60.8464 57.792H59.843L58.7808 62.8431Z" fill="#2CB3A1"/>
<path d="M64.4438 62.0005H66.8911V61.0904H64.4438V58.7021H68.1491V57.792H63.46V65.5589H68.3987V64.6392H64.4438V62.0005Z" fill="#2CB3A1"/>
<path d="M76.4119 61.3746C76.7153 60.9701 76.8671 60.5126 76.8671 60.007C76.8671 59.3763 76.6664 58.8562 76.2748 58.4325C75.8784 58.0136 75.2469 57.7969 74.3757 57.7969H71.2676V65.5638H72.2465V62.2365H73.9939L75.6189 65.5638H76.7251L75.0316 62.1691C75.6483 62.039 76.1084 61.7742 76.4119 61.3746ZM75.521 60.9556C75.2861 61.206 74.9092 61.3312 74.4002 61.3312H72.2465V58.6925H74.4002C74.9288 58.6925 75.3057 58.8273 75.5357 59.0922C75.7658 59.357 75.8784 59.6652 75.8784 60.0215C75.8735 60.3923 75.756 60.7052 75.521 60.9556Z" fill="#2CB3A1"/>
<path d="M80.7924 62.0005H83.2397V61.0904H80.7924V58.7021H84.5026V57.792H79.8086V65.5589H84.7473V64.6392H80.7924V62.0005Z" fill="#2CB3A1"/>
<path d="M92.6176 59.0247C92.3386 58.6491 91.9568 58.3506 91.4674 58.1242C90.9828 57.9027 90.4101 57.792 89.764 57.792H87.6104V65.5589H89.72C90.4052 65.5589 91.0024 65.4433 91.5016 65.2074C92.0058 64.9762 92.3925 64.6633 92.6568 64.278C92.9211 63.888 93.1218 63.4787 93.2441 63.0453C93.3665 62.6168 93.4252 62.1594 93.4252 61.6778C93.4252 61.1771 93.3616 60.7004 93.2294 60.2622C93.0973 59.8144 92.8966 59.4051 92.6176 59.0247ZM92.2848 62.742C92.1967 63.0742 92.0596 63.392 91.8736 63.6906C91.6827 63.9891 91.4184 64.2299 91.066 64.4032C90.7185 64.5766 90.3122 64.6632 89.8423 64.6632H88.5942V58.6828H89.9696C90.5178 58.6828 90.9828 58.8321 91.3646 59.1306C91.7513 59.4243 92.0205 59.7903 92.1771 60.2285C92.3337 60.6618 92.412 61.1482 92.412 61.6778C92.412 62.0534 92.3729 62.4098 92.2848 62.742Z" fill="#2CB3A1"/>
<path d="M104.145 61.466C104.512 61.3119 104.796 61.0904 104.996 60.8063C105.202 60.5222 105.305 60.2044 105.305 59.8433C105.305 59.2606 105.109 58.7695 104.722 58.3794C104.331 57.9846 103.709 57.792 102.843 57.792H100.048V65.5589H103.024C103.484 65.5589 103.885 65.4915 104.233 65.3615C104.575 65.2314 104.845 65.0581 105.031 64.8366C105.222 64.6151 105.359 64.3743 105.452 64.124C105.54 63.8736 105.589 63.6087 105.589 63.3246C105.589 62.8816 105.461 62.4964 105.212 62.1642C104.952 61.8416 104.6 61.6056 104.145 61.466ZM101.027 58.6732H102.897C103.851 58.6732 104.331 59.068 104.331 59.8577C104.331 60.2429 104.184 60.5463 103.9 60.763C103.616 60.9796 103.195 61.0904 102.652 61.0904H101.027V58.6732ZM104.277 64.3021C104.047 64.5477 103.67 64.6681 103.136 64.6681H101.027V61.9619H102.774C103.998 61.9619 104.61 62.4386 104.61 63.392C104.615 63.758 104.502 64.0614 104.277 64.3021Z" fill="#2CB3A1"/>
<path d="M110.727 61.5671L108.662 57.792H107.556L110.238 62.5109V65.5589H111.222V62.4868L113.88 57.792H112.813L110.727 61.5671Z" fill="#2CB3A1"/>
<path d="M121.55 57.792L118.755 65.5589H119.783L120.448 63.6617H123.581L124.257 65.5589H125.26L122.465 57.792H121.55V57.792ZM120.737 62.8094L121.765 59.9396C121.848 59.6988 121.932 59.4388 122.015 59.1499C122.054 59.3136 122.132 59.5736 122.259 59.9396L123.273 62.8094H120.737Z" fill="#2CB3A1"/>
<path d="M126.405 58.7166H128.608V65.5589H129.587V58.7166H131.785V57.7969H126.405V58.7166Z" fill="#2CB3A1"/>
<path d="M136.958 64.7837C136.219 64.7837 135.661 64.4803 135.279 63.8688C134.897 63.2573 134.707 62.5254 134.707 61.6731C134.707 61.1579 134.77 60.6763 134.902 60.2237C135.035 59.7759 135.274 59.3859 135.632 59.0584C135.984 58.7214 136.425 58.5577 136.958 58.5577C137.355 58.5577 137.683 58.6395 137.937 58.7984C138.187 58.9573 138.422 59.1933 138.627 59.5014L139.508 59.0584C139.038 58.1291 138.192 57.6572 136.958 57.6572C136.395 57.6572 135.896 57.7728 135.465 58.0087C135.03 58.2399 134.692 58.5529 134.437 58.9381C134.183 59.3233 133.997 59.7518 133.874 60.2141C133.752 60.6763 133.688 61.1627 133.688 61.6731C133.688 62.1931 133.747 62.6843 133.87 63.1369C133.987 63.5992 134.173 64.0229 134.418 64.4129C134.667 64.803 135.01 65.1111 135.446 65.3423C135.881 65.5686 136.385 65.6841 136.958 65.6841C137.614 65.6841 138.157 65.5397 138.593 65.2556C139.029 64.9715 139.357 64.5911 139.572 64.1192L138.671 63.787C138.27 64.4563 137.697 64.7837 136.958 64.7837Z" fill="#2CB3A1"/>
<path d="M148.163 59.4341C147.991 59.0826 147.781 58.7696 147.531 58.5144C147.282 58.2544 146.958 58.0473 146.572 57.8932C146.18 57.7392 145.75 57.6621 145.27 57.6621C144.673 57.6621 144.154 57.7777 143.708 58.0136C143.258 58.2447 142.911 58.5626 142.661 58.9574C142.406 59.3571 142.225 59.7808 142.103 60.2334C141.981 60.6909 141.922 61.1724 141.922 61.6828C141.922 62.1932 141.981 62.6747 142.103 63.1322C142.22 63.5848 142.406 64.0133 142.661 64.4082C142.911 64.803 143.258 65.1208 143.708 65.352C144.154 65.5831 144.673 65.7035 145.27 65.7035C145.75 65.7035 146.185 65.6264 146.572 65.4723C146.958 65.3183 147.282 65.1064 147.531 64.8512C147.781 64.5912 147.991 64.283 148.163 63.9315C148.329 63.58 148.451 63.214 148.52 62.8432C148.593 62.4725 148.628 62.0873 148.628 61.6876C148.628 61.2879 148.588 60.9075 148.52 60.5368C148.451 60.1564 148.334 59.7904 148.163 59.4341ZM147.477 62.7566C147.394 63.1081 147.267 63.4355 147.096 63.7485C146.924 64.0567 146.679 64.3071 146.361 64.4949C146.048 64.6827 145.681 64.779 145.27 64.779C144.854 64.779 144.496 64.6923 144.178 64.5141C143.87 64.336 143.625 64.0952 143.449 63.7918C143.268 63.4885 143.141 63.1562 143.057 62.8047C142.969 62.4484 142.93 62.0728 142.93 61.6683C142.93 61.2928 142.974 60.9316 143.062 60.5801C143.15 60.2334 143.278 59.9012 143.454 59.5882C143.625 59.2704 143.87 59.02 144.178 58.8322C144.492 58.6444 144.854 58.5481 145.27 58.5481C145.818 58.5481 146.278 58.707 146.64 59.0248C147.003 59.3426 147.257 59.723 147.394 60.1708C147.531 60.6186 147.6 61.1194 147.6 61.6635C147.6 62.0487 147.561 62.4051 147.477 62.7566Z" fill="#2CB3A1"/>
<path d="M66.2747 14.2294C65.3056 14.2294 64.5714 14.4268 64.0966 14.8169C63.7099 15.1347 63.519 15.7655 63.519 16.69V33.8657C63.519 37.7757 62.5891 40.8429 60.7584 42.9809C58.8593 45.2007 55.9959 46.3226 52.2564 46.3226C48.512 46.3226 45.6486 45.2007 43.7543 42.9809C41.9237 40.8429 40.9937 37.7805 40.9937 33.8657V14.6002L40.6854 14.4991C40.1176 14.3209 39.4666 14.2246 38.7569 14.2246C37.7339 14.2246 36.9801 14.422 36.5053 14.8121C36.1235 15.1299 35.9277 15.7607 35.9277 16.6852V35.8063C35.9277 38.2138 36.334 40.3903 37.1269 42.2779C37.915 44.1462 39.0212 45.7448 40.4113 47.0256C41.8062 48.3113 43.5194 49.3032 45.4919 49.9725C47.5232 50.6563 49.7993 51.0078 52.2564 51.0078C54.7135 51.0078 56.9895 50.6563 59.0208 49.9725C61.0032 49.2984 62.7261 48.3065 64.1505 47.0112C65.5601 45.7352 66.6565 44.1462 67.4201 42.2827C68.1935 40.3903 68.5899 38.209 68.5899 35.7966V14.5954L68.2816 14.4991C67.7089 14.3209 67.0334 14.2294 66.2747 14.2294Z" fill="#2CB3A1"/>
<path d="M66.1133 7.17993C66.9307 7.17993 67.5768 6.91991 68.1348 6.3758C68.6928 5.82205 68.9522 5.18645 68.9522 4.37268C68.9522 3.56373 68.6928 2.92331 68.1348 2.36957C67.5768 1.82063 66.9356 1.56543 66.1133 1.56543C65.291 1.56543 64.6498 1.82545 64.0918 2.37438C63.5338 2.92813 63.2744 3.55891 63.2744 4.37268C63.2744 5.18645 63.5338 5.82205 64.0918 6.37098C64.6498 6.91991 65.291 7.17993 66.1133 7.17993Z" fill="#2CB3A1"/>
<path d="M38.8838 7.17993C39.7012 7.17993 40.3473 6.91991 40.9053 6.3758C41.4633 5.82205 41.7227 5.18645 41.7227 4.37268C41.7227 3.56373 41.4633 2.92331 40.9053 2.36957C40.3473 1.82063 39.7061 1.56543 38.8838 1.56543C38.0664 1.56543 37.4203 1.82545 36.8623 2.37438C36.3043 2.92813 36.0449 3.55891 36.0449 4.37268C36.0449 5.18645 36.3043 5.82205 36.8623 6.37098C37.4203 6.91991 38.0615 7.17993 38.8838 7.17993Z" fill="#2CB3A1"/>
</svg>
