<svg width="18" height="18" viewBox="0 0 18 18" fill="none" xmlns="http://www.w3.org/2000/svg">
<path fill-rule="evenodd" clip-rule="evenodd" d="M9 18C13.9706 18 18 13.9706 18 9C18 4.02944 13.9706 0 9 0C4.02944 0 0 4.02944 0 9C0 13.9706 4.02944 18 9 18ZM5.6963 8.99999C5.6963 8.56507 5.34373 8.21249 4.9088 8.21249C4.47388 8.21249 4.1213 8.56507 4.1213 8.99999C4.1213 10.2938 4.63528 11.5347 5.55015 12.4495C6.46503 13.3644 7.70588 13.8784 8.99971 13.8784C10.2935 13.8784 11.5344 13.3644 12.4493 12.4495C13.3641 11.5347 13.8781 10.2938 13.8781 8.99999C13.8781 8.56507 13.5255 8.21249 13.0906 8.21249C12.6557 8.21249 12.3031 8.56507 12.3031 8.99999C12.3031 9.87611 11.9551 10.7163 11.3356 11.3359C10.7161 11.9554 9.87583 12.3034 8.99971 12.3034C8.12359 12.3034 7.28336 11.9554 6.66385 11.3359C6.04434 10.7163 5.6963 9.87611 5.6963 8.99999Z" fill="#FF2B67"/>
</svg>
