<svg width="16" height="16" viewBox="0 0 16 16" fill="none" xmlns="http://www.w3.org/2000/svg">
<path fill-rule="evenodd" clip-rule="evenodd" d="M8 1.44C10.14 1.44 10.39 1.45 11.23 1.49C12.01 1.53 12.43 1.66 12.72 1.77C13.09 1.92 13.36 2.09 13.64 2.37C13.92 2.65 14.09 2.92 14.24 3.29C14.35 3.57 14.48 4 14.52 4.78C14.56 5.62 14.57 5.88 14.57 8.01C14.57 10.14 14.56 10.4 14.52 11.24C14.48 12.02 14.35 12.44 14.24 12.73C14.09 13.1 13.92 13.37 13.64 13.65C13.36 13.93 13.09 14.1 12.72 14.25C12.44 14.36 12.01 14.49 11.23 14.53C10.39 14.57 10.13 14.58 8 14.58C5.86 14.58 5.61 14.57 4.77 14.53C3.99 14.49 3.57 14.36 3.28 14.25C2.91 14.1 2.64 13.93 2.36 13.65C2.08 13.37 1.91 13.1 1.76 12.73C1.65 12.45 1.52 12.02 1.48 11.24C1.44 10.4 1.43 10.14 1.43 8.01C1.43 5.88 1.44 5.62 1.48 4.78C1.52 4 1.65 3.58 1.76 3.29C1.91 2.92 2.08 2.65 2.36 2.37C2.64 2.09 2.91 1.92 3.28 1.77C3.56 1.66 3.99 1.53 4.77 1.49C5.61 1.45 5.86 1.44 8 1.44ZM8 0C5.83 0 5.55 0.0100002 4.7 0.0500002C3.85 0.0900002 3.27 0.22 2.76 0.42C2.23 0.62 1.79 0.9 1.34 1.34C0.9 1.79 0.62 2.23 0.42 2.76C0.22 3.27 0.0900002 3.85 0.0500002 4.7C0.0100002 5.55 0 5.83 0 8C0 10.17 0.0100002 10.45 0.0500002 11.3C0.0900002 12.15 0.22 12.73 0.42 13.24C0.62 13.77 0.9 14.21 1.34 14.66C1.78 15.1 2.23 15.38 2.76 15.58C3.27 15.78 3.85 15.91 4.7 15.95C5.55 15.99 5.83 16 8 16C10.17 16 10.45 15.99 11.3 15.95C12.15 15.91 12.73 15.78 13.24 15.58C13.77 15.38 14.21 15.1 14.66 14.66C15.1 14.22 15.38 13.77 15.58 13.24C15.78 12.73 15.91 12.15 15.95 11.3C15.99 10.45 16 10.17 16 8C16 5.83 15.99 5.55 15.95 4.7C15.91 3.85 15.78 3.27 15.58 2.76C15.38 2.23 15.1 1.79 14.66 1.34C14.22 0.9 13.77 0.62 13.24 0.42C12.73 0.22 12.15 0.0900002 11.3 0.0500002C10.45 0.0100002 10.17 0 8 0ZM8 3.89C5.73 3.89 3.89 5.73 3.89 8C3.89 10.27 5.73 12.11 8 12.11C10.27 12.11 12.11 10.27 12.11 8C12.11 5.73 10.27 3.89 8 3.89ZM8 10.67C6.53 10.67 5.33 9.48 5.33 8C5.33 6.52 6.53 5.33 8 5.33C9.47 5.33 10.67 6.52 10.67 8C10.67 9.48 9.47 10.67 8 10.67ZM12.27 2.77C11.74 2.77 11.31 3.2 11.31 3.73C11.31 4.26 11.74 4.69 12.27 4.69C12.8 4.69 13.23 4.26 13.23 3.73C13.23 3.2 12.8 2.77 12.27 2.77Z" fill="#666666"/>
</svg>
