<svg width="16" height="16" viewBox="0 0 16 16" fill="none" xmlns="http://www.w3.org/2000/svg">
<path fill-rule="evenodd" clip-rule="evenodd" d="M16 9.43982V15.3598H12.57V9.83982C12.57 8.44982 12.07 7.50982 10.83 7.50982C9.88 7.50982 9.32 8.14983 9.07 8.75982C8.98 8.97983 8.96 9.28982 8.96 9.59982V15.3598H5.53C5.53 15.3598 5.58 6.00982 5.53 5.03982H8.96V6.49982C8.95 6.50982 8.94 6.51982 8.94 6.52982H8.96V6.49982C9.42 5.79982 10.23 4.79982 12.05 4.79982C14.31 4.79982 16 6.26982 16 9.43982ZM1.94 0.0698242C0.77 0.0698242 0 0.839824 0 1.84982C0 2.83982 0.75 3.62982 1.9 3.62982H1.92C3.12 3.62982 3.86 2.83982 3.86 1.84982C3.84 0.839824 3.12 0.0698242 1.94 0.0698242ZM0.2 15.3598H3.63V5.03982H0.2V15.3598Z" fill="#666666"/>
</svg>
