<svg width="16" height="14" viewBox="0 0 16 14" fill="none" xmlns="http://www.w3.org/2000/svg">
<path fill-rule="evenodd" clip-rule="evenodd" d="M16 2.04C15.41 2.3 14.78 2.48 14.11 2.56C14.79 2.15 15.31 1.51 15.55 0.74C14.92 1.12 14.21 1.39 13.47 1.54C12.87 0.9 12.02 0.5 11.07 0.5C9.26 0.5 7.79 1.97 7.79 3.78C7.79 4.04 7.82 4.29 7.88 4.53C5.15 4.39 2.73 3.09 1.11 1.1C0.83 1.58 0.67 2.15 0.67 2.75C0.67 3.89 1.25 4.89 2.13 5.48C1.59 5.46 1.09 5.32 0.64 5.07C0.64 5.08 0.64 5.1 0.64 5.11C0.64 6.7 1.77 8.03 3.27 8.33C3 8.41 2.71 8.45 2.41 8.45C2.2 8.45 1.99 8.43 1.79 8.39C2.21 9.69 3.42 10.64 4.86 10.67C3.74 11.55 2.32 12.08 0.78 12.08C0.52 12.08 0.25 12.06 0 12.03C1.45 12.96 3.18 13.51 5.03 13.51C11.07 13.51 14.37 8.51 14.37 4.17C14.37 4.03 14.37 3.89 14.36 3.75C15 3.27 15.56 2.7 16 2.04Z" fill="#666666"/>
</svg>
