<svg width="328" height="141" viewBox="0 0 328 141" fill="none" xmlns="http://www.w3.org/2000/svg">
<g filter="url(#filter0_d_214_407)">
<rect x="42" y="37.1246" width="247" height="50.3271" rx="25.1635" transform="rotate(3 42 37.1246)" fill="white"/>
<circle cx="72.4246" cy="63.9172" r="10.5952" transform="rotate(3 72.4246 63.9172)" fill="#FF2B67"/>
<path d="M77.234 64.1693C77.1672 65.4448 76.5964 66.6415 75.6471 67.4962C74.6979 68.3509 73.4481 68.7934 72.1726 68.7266C70.897 68.6598 69.7003 68.0889 68.8456 67.1397C67.991 66.1905 67.5484 64.9407 67.6152 63.6652" stroke="white" stroke-width="2.06937"/>
<path d="M97.3558 62.156C96.6351 62.1183 96.039 61.9646 95.5674 61.6951C95.0998 61.4259 94.7618 61.0915 94.5535 60.692C94.3452 60.2926 94.2525 59.8739 94.2754 59.4361L95.7227 59.5119C95.7097 59.7599 95.7676 59.9883 95.8966 60.1971C96.0255 60.4059 96.2205 60.5774 96.4816 60.7115C96.7428 60.8417 97.0536 60.9163 97.414 60.9352C98.588 60.9967 99.1957 60.6342 99.2369 59.8476C99.2493 59.6113 99.1858 59.4137 99.0465 59.2548C98.9112 59.0923 98.7163 58.9578 98.4615 58.8512C98.207 58.7407 97.8803 58.6362 97.4814 58.5375C96.9334 58.3923 96.4544 58.2273 96.0444 58.0426C95.6345 57.858 95.2946 57.5973 95.0247 57.2607C94.7548 56.924 94.6332 56.5019 94.6598 55.9943C94.6829 55.5526 94.8099 55.1688 95.0407 54.8428C95.2717 54.513 95.6131 54.2628 96.065 54.0923C96.5171 53.9178 97.0744 53.8479 97.737 53.8826C98.3802 53.9164 98.9194 54.0437 99.3546 54.2647C99.7901 54.4817 100.111 54.7744 100.317 55.1427C100.523 55.5109 100.613 55.9334 100.588 56.4099L99.1413 56.3341C99.1583 56.0086 99.0424 55.7364 98.7936 55.5174C98.5447 55.2985 98.1646 55.1756 97.6531 55.1488C97.1068 55.1201 96.7163 55.1949 96.4816 55.373C96.2469 55.551 96.1219 55.7854 96.1067 56.076C96.0953 56.293 96.1574 56.4808 96.2928 56.6394C96.4285 56.7942 96.637 56.9294 96.9185 57.0452C97.2001 57.1571 97.5696 57.2619 98.0268 57.3597C98.8673 57.5592 99.5316 57.8563 100.02 58.251C100.512 58.6459 100.739 59.2056 100.701 59.9302C100.675 60.4339 100.52 60.859 100.238 61.2056C99.9557 61.5521 99.5675 61.8057 99.0734 61.9663C98.5793 62.1269 98.0068 62.1902 97.3558 62.156ZM104.452 62.528C103.898 62.4989 103.415 62.3726 103.004 62.149C102.596 61.9217 102.284 61.5809 102.066 61.1266C101.849 60.6723 101.759 60.1022 101.795 59.4163L101.962 56.2255L103.357 56.2986L103.192 59.4488C103.163 60.0029 103.259 60.4314 103.48 60.7344C103.705 61.0337 104.05 61.1956 104.515 61.2199C104.98 61.2443 105.338 61.1174 105.59 60.8392C105.842 60.5609 105.982 60.1467 106.011 59.5965L106.176 56.4463L107.576 56.5197L107.409 59.7106C107.373 60.3964 107.224 60.9539 106.96 61.383C106.697 61.8083 106.351 62.1126 105.922 62.2961C105.492 62.4795 105.003 62.5568 104.452 62.528ZM110.436 56.6696L110.383 57.6751C110.619 57.3222 110.923 57.0506 111.294 56.8603C111.67 56.6663 112.071 56.5804 112.497 56.6028C113.051 56.6318 113.541 56.7993 113.968 57.1053C114.399 57.4115 114.726 57.8133 114.948 58.3107C115.175 58.8043 115.273 59.3398 115.243 59.9172C115.213 60.4984 115.059 61.0246 114.781 61.4957C114.504 61.963 114.138 62.3265 113.681 62.5862C113.228 62.8461 112.729 62.9617 112.183 62.9331C111.752 62.9105 111.363 62.7871 111.013 62.5629C110.664 62.3348 110.397 62.0411 110.214 61.6818L110.207 62.375L110.086 64.6882L108.679 64.6145L109.099 56.5995L110.436 56.6696ZM111.995 61.6236C112.312 61.6402 112.609 61.58 112.884 61.4429C113.16 61.3019 113.384 61.0942 113.558 60.8196C113.732 60.5451 113.828 60.2199 113.848 59.8441C113.867 59.4798 113.805 59.1521 113.661 58.8609C113.521 58.57 113.319 58.3399 113.056 58.1707C112.797 57.9978 112.506 57.9029 112.185 57.8861C111.867 57.8694 111.568 57.9373 111.288 58.0897C111.012 58.2384 110.787 58.452 110.614 58.7304C110.444 59.009 110.35 59.3188 110.332 59.6598C110.313 60.0163 110.376 60.342 110.519 60.6371C110.664 60.9283 110.865 61.1622 111.124 61.339C111.387 61.5121 111.677 61.6069 111.995 61.6236ZM117.969 57.0644L117.916 58.0699C118.152 57.717 118.456 57.4454 118.827 57.2551C119.202 57.061 119.603 56.9752 120.029 56.9975C120.583 57.0266 121.074 57.1941 121.501 57.5001C121.932 57.8063 122.258 58.2081 122.481 58.7054C122.708 59.1991 122.806 59.7346 122.776 60.3119C122.745 60.8931 122.591 61.4193 122.314 61.8905C122.037 62.3577 121.67 62.7212 121.214 62.9809C120.761 63.2408 120.261 63.3565 119.715 63.3278C119.285 63.3053 118.895 63.1819 118.546 62.9577C118.196 62.7295 117.93 62.4358 117.747 62.0765L117.739 62.7697L117.618 65.0829L116.212 65.0092L116.632 56.9943L117.969 57.0644ZM119.527 62.0183C119.845 62.035 120.142 61.9748 120.417 61.8377C120.692 61.6967 120.917 61.4889 121.091 61.2144C121.264 60.9399 121.361 60.6147 121.381 60.2388C121.4 59.8746 121.337 59.5469 121.193 59.2557C121.053 58.9647 120.851 58.7346 120.588 58.5654C120.329 58.3926 120.039 58.2977 119.717 58.2808C119.4 58.2642 119.101 58.3321 118.821 58.4845C118.545 58.6332 118.32 58.8468 118.146 59.1252C117.976 59.4038 117.882 59.7136 117.864 60.0545C117.846 60.411 117.908 60.7368 118.052 61.0318C118.196 61.323 118.397 61.557 118.656 61.7337C118.919 61.9068 119.21 62.0017 119.527 62.0183ZM126.556 63.6864C125.963 63.6553 125.434 63.4857 124.968 63.1777C124.506 62.8699 124.153 62.4686 123.906 61.9739C123.661 61.4754 123.553 60.9355 123.583 60.3543C123.614 59.7769 123.777 59.2532 124.074 58.7831C124.37 58.3129 124.764 57.9489 125.256 57.691C125.751 57.4334 126.297 57.3202 126.894 57.3514C127.494 57.3829 128.027 57.5527 128.493 57.8607C128.959 58.1687 129.315 58.572 129.56 59.0706C129.806 59.5692 129.914 60.1071 129.884 60.6845C129.853 61.2657 129.69 61.7913 129.393 62.2615C129.097 62.7316 128.699 63.0954 128.199 63.3529C127.704 63.6067 127.157 63.7178 126.556 63.6864ZM126.636 62.3792C126.969 62.3967 127.272 62.3329 127.544 62.1878C127.819 62.043 128.04 61.8331 128.206 61.5582C128.376 61.2834 128.47 60.9678 128.489 60.6113C128.507 60.2587 128.446 59.937 128.306 59.646C128.17 59.3513 127.973 59.1176 127.714 58.9447C127.455 58.7679 127.161 58.6709 126.831 58.6537C126.502 58.6364 126.199 58.7021 125.924 58.8509C125.648 58.9957 125.425 59.2074 125.255 59.4861C125.089 59.761 124.997 60.0748 124.978 60.4274C124.96 60.7838 125.018 61.1075 125.155 61.3982C125.295 61.6892 125.493 61.9211 125.748 62.0937C126.007 62.2666 126.303 62.3618 126.636 62.3792ZM132.615 57.832L132.558 58.913C132.719 58.5834 132.941 58.3308 133.222 58.1552C133.507 57.9758 133.84 57.8961 134.219 57.916L134.859 57.9495L134.795 59.1585L134.231 59.1289C133.91 59.1121 133.623 59.1747 133.371 59.3169C133.118 59.4591 132.917 59.6758 132.765 59.9671C132.614 60.2583 132.528 60.6132 132.506 61.0317L132.36 63.8099L130.954 63.7362L131.267 57.7613L132.615 57.832ZM138.283 64.1203C137.713 64.0904 137.249 63.9087 136.889 63.5752C136.53 63.2377 136.374 62.6273 136.42 61.7438L136.55 59.2504L135.312 59.1856L135.376 57.9766L136.614 58.0415L136.706 56.2921L138.113 56.3542L138.02 58.1152L139.811 58.2091L139.747 59.418L137.957 59.3242L137.823 61.8815C137.787 62.5751 138.057 62.937 138.634 62.9672L139.559 63.0157L139.497 64.1839L138.283 64.1203ZM145.193 58.4911L145.14 59.4966C145.376 59.1438 145.68 58.8722 146.051 58.6818C146.426 58.4878 146.827 58.4019 147.253 58.4243C147.807 58.4533 148.298 58.6208 148.725 58.9268C149.156 59.233 149.482 59.6348 149.705 60.1322C149.932 60.6258 150.03 61.1613 150 61.7387C149.969 62.3199 149.815 62.8461 149.538 63.3172C149.261 63.7845 148.894 64.148 148.438 64.4077C147.985 64.6676 147.485 64.7832 146.939 64.7546C146.509 64.7321 146.119 64.6087 145.77 64.3844C145.42 64.1563 145.154 63.8626 144.971 63.5033L144.963 64.1965L144.842 66.5097L143.436 66.436L143.856 58.4211L145.193 58.4911ZM146.751 63.4451C147.069 63.4617 147.366 63.4015 147.641 63.2644C147.916 63.1234 148.141 62.9157 148.315 62.6411C148.488 62.3666 148.585 62.0414 148.605 61.6656C148.624 61.3013 148.561 60.9736 148.417 60.6825C148.277 60.3915 148.075 60.1614 147.812 59.9922C147.553 59.8193 147.263 59.7244 146.941 59.7076C146.624 59.6909 146.325 59.7588 146.045 59.9112C145.769 60.0599 145.544 60.2735 145.37 60.5519C145.2 60.8305 145.106 61.1403 145.088 61.4813C145.07 61.8378 145.132 62.1635 145.276 62.4586C145.42 62.7498 145.621 62.9837 145.88 63.1605C146.143 63.3336 146.434 63.4284 146.751 63.4451ZM156.921 61.9965C156.915 62.1283 156.897 62.2866 156.867 62.4716L152.2 62.227C152.23 62.5472 152.316 62.8276 152.459 63.0682C152.606 63.309 152.792 63.4975 153.018 63.6336C153.248 63.7662 153.501 63.8396 153.776 63.854C154.125 63.8723 154.413 63.8194 154.641 63.6954C154.873 63.5677 155.048 63.3768 155.166 63.1226L156.701 63.203C156.577 63.5657 156.375 63.897 156.095 64.197C155.815 64.4971 155.471 64.7316 155.062 64.9005C154.657 65.0658 154.216 65.136 153.739 65.111C153.154 65.0803 152.633 64.9112 152.175 64.6035C151.717 64.2959 151.367 63.8929 151.125 63.3946C150.883 62.8962 150.777 62.3584 150.807 61.781C150.838 61.2037 150.999 60.6798 151.292 60.2095C151.585 59.7392 151.975 59.375 152.462 59.1169C152.95 58.8588 153.486 58.7451 154.071 58.7758C154.656 58.8064 155.17 58.9732 155.613 59.2762C156.055 59.5791 156.39 59.9716 156.618 60.4536C156.849 60.932 156.95 61.4463 156.921 61.9965ZM155.518 61.311C155.51 61.0891 155.437 60.8814 155.3 60.6876C155.163 60.4901 154.979 60.3308 154.748 60.21C154.521 60.0854 154.272 60.016 154.001 60.0018C153.625 59.9821 153.283 60.0691 152.973 60.2627C152.668 60.4526 152.449 60.7461 152.315 61.1432L155.518 61.311ZM160.615 65.4713C160.022 65.4402 159.493 65.2707 159.027 64.9627C158.566 64.6548 158.212 64.2536 157.966 63.7589C157.72 63.2603 157.612 62.7204 157.642 62.1392C157.673 61.5619 157.836 61.0382 158.133 60.568C158.429 60.0979 158.823 59.7339 159.315 59.476C159.81 59.2183 160.356 59.1051 160.953 59.1364C161.553 59.1679 162.087 59.3376 162.552 59.6457C163.018 59.9537 163.374 60.357 163.619 60.8556C163.865 61.3541 163.973 61.8921 163.943 62.4694C163.912 63.0506 163.749 63.5763 163.452 64.0464C163.156 64.5166 162.758 64.8804 162.259 65.1378C161.763 65.3916 161.216 65.5028 160.615 65.4713ZM160.695 64.1642C161.028 64.1817 161.331 64.1179 161.603 63.9728C161.878 63.828 162.099 63.6181 162.265 63.3431C162.435 63.0684 162.529 62.7528 162.548 62.3963C162.566 62.0437 162.506 61.7219 162.365 61.4309C162.229 61.1363 162.032 60.9025 161.773 60.7296C161.514 60.5529 161.22 60.4559 160.89 60.4386C160.561 60.4214 160.258 60.4871 159.983 60.6358C159.707 60.7807 159.484 60.9924 159.314 61.271C159.148 61.546 159.056 61.8597 159.037 62.2123C159.019 62.5688 159.078 62.8924 159.214 63.1832C159.354 63.4742 159.552 63.706 159.807 63.8787C160.066 64.0516 160.362 64.1467 160.695 64.1642ZM166.663 59.6163L166.61 60.6218C166.846 60.2689 167.15 59.9973 167.521 59.807C167.896 59.613 168.297 59.5271 168.723 59.5495C169.277 59.5785 169.768 59.746 170.195 60.052C170.626 60.3582 170.952 60.76 171.175 61.2574C171.402 61.751 171.5 62.2865 171.47 62.8639C171.439 63.4451 171.285 63.9713 171.008 64.4424C170.731 64.9097 170.364 65.2732 169.908 65.5329C169.455 65.7928 168.955 65.9084 168.409 65.8798C167.979 65.8572 167.589 65.7339 167.24 65.5096C166.89 65.2815 166.624 64.9878 166.441 64.6285L166.433 65.3217L166.312 67.6349L164.906 67.5612L165.326 59.5462L166.663 59.6163ZM168.221 64.5703C168.539 64.5869 168.836 64.5267 169.111 64.3896C169.386 64.2486 169.611 64.0409 169.785 63.7663C169.958 63.4918 170.055 63.1666 170.075 62.7908C170.094 62.4265 170.031 62.0988 169.887 61.8077C169.747 61.5167 169.545 61.2866 169.282 61.1174C169.023 60.9445 168.733 60.8496 168.411 60.8328C168.094 60.8161 167.795 60.884 167.515 61.0364C167.239 61.1851 167.014 61.3987 166.84 61.6771C166.67 61.9557 166.576 62.2655 166.558 62.6065C166.54 62.963 166.602 63.2887 166.746 63.5838C166.89 63.875 167.091 64.1089 167.35 64.2857C167.613 64.4588 167.904 64.5536 168.221 64.5703ZM172.974 57.7266L174.381 57.8003L173.952 65.9896L172.545 65.9159L172.974 57.7266ZM181.449 63.2819C181.442 63.4137 181.424 63.572 181.395 63.757L176.727 63.5124C176.757 63.8326 176.844 64.113 176.986 64.3536C177.133 64.5944 177.319 64.7829 177.545 64.9191C177.775 65.0516 178.028 65.125 178.303 65.1394C178.652 65.1577 178.94 65.1048 179.168 64.9808C179.4 64.8531 179.575 64.6622 179.694 64.408L181.228 64.4885C181.104 64.8511 180.902 65.1824 180.622 65.4825C180.342 65.7825 179.998 66.017 179.589 66.1859C179.184 66.3512 178.743 66.4214 178.266 66.3964C177.681 66.3657 177.16 66.1966 176.702 65.8889C176.244 65.5813 175.894 65.1783 175.652 64.68C175.41 64.1816 175.304 63.6438 175.335 63.0664C175.365 62.4891 175.526 61.9653 175.819 61.4949C176.112 61.0246 176.502 60.6604 176.99 60.4023C177.477 60.1442 178.013 60.0305 178.598 60.0612C179.184 60.0918 179.697 60.2586 180.14 60.5616C180.583 60.8645 180.918 61.257 181.145 61.7391C181.376 62.2174 181.477 62.7317 181.449 63.2819ZM180.045 62.5964C180.037 62.3746 179.965 62.1668 179.827 61.9731C179.69 61.7755 179.506 61.6163 179.275 61.4954C179.049 61.3708 178.8 61.3014 178.528 61.2872C178.153 61.2675 177.81 61.3545 177.501 61.5481C177.195 61.738 176.976 62.0315 176.843 62.4286L180.045 62.5964ZM187.723 66.892C187.196 66.8644 186.725 66.6979 186.309 66.3925C185.894 66.0871 185.577 65.6858 185.358 65.1887C185.14 64.6915 185.045 64.1543 185.076 63.5769C185.106 63.0035 185.256 62.481 185.525 62.0094C185.798 61.5381 186.156 61.1721 186.597 60.9116C187.042 60.6474 187.526 60.529 188.049 60.5565C188.537 60.582 188.964 60.7112 189.328 60.944C189.697 61.1732 189.969 61.4788 190.143 61.8609L190.196 60.8496L191.533 60.9197L191.22 66.8946L189.883 66.8245L189.935 65.819C189.722 66.1808 189.42 66.4564 189.03 66.6457C188.643 66.8353 188.207 66.9174 187.723 66.892ZM188.128 65.6077C188.45 65.6246 188.748 65.5586 189.024 65.4099C189.304 65.2575 189.529 65.0439 189.699 64.7692C189.869 64.4906 189.963 64.1789 189.981 63.834C189.999 63.493 189.936 63.177 189.792 62.8858C189.652 62.5909 189.453 62.3532 189.194 62.1726C188.935 61.9919 188.645 61.8932 188.324 61.8763C188.002 61.8595 187.703 61.9235 187.428 62.0683C187.152 62.2093 186.928 62.4171 186.754 62.6916C186.584 62.9663 186.49 63.2858 186.471 63.65C186.451 64.0259 186.513 64.3594 186.657 64.6506C186.801 64.9418 187.003 65.1699 187.262 65.3351C187.522 65.5002 187.81 65.5911 188.128 65.6077ZM195.528 67.3011C194.947 67.2706 194.428 67.1015 193.97 66.7939C193.516 66.4865 193.168 66.0836 192.926 65.5852C192.684 65.0869 192.578 64.549 192.608 63.9717C192.638 63.3982 192.8 62.8763 193.092 62.406C193.385 61.9357 193.773 61.5714 194.257 61.3131C194.745 61.0511 195.279 60.9354 195.86 60.9658C196.36 60.992 196.81 61.1147 197.211 61.3338C197.611 61.5491 197.94 61.8383 198.197 62.2014C198.454 62.5607 198.627 62.9642 198.716 63.4118L197.281 63.3365C197.166 63.008 196.977 62.7534 196.715 62.5725C196.456 62.3919 196.15 62.2923 195.798 62.2739C195.503 62.2584 195.222 62.3195 194.955 62.457C194.687 62.5906 194.467 62.7947 194.293 63.0692C194.12 63.3438 194.023 63.669 194.003 64.0448C193.983 64.4245 194.045 64.76 194.189 65.0512C194.334 65.3385 194.532 65.5645 194.783 65.7292C195.035 65.8939 195.308 65.984 195.603 65.9994C195.959 66.0181 196.277 65.9474 196.558 65.7872C196.838 65.6232 197.05 65.3662 197.193 65.0162L198.622 65.0912C198.494 65.5468 198.282 65.9476 197.988 66.2935C197.698 66.6358 197.341 66.8968 196.916 67.0765C196.491 67.2524 196.028 67.3272 195.528 67.3011ZM201.995 67.4593C201.426 67.4294 200.961 67.2477 200.602 66.9142C200.242 66.5768 200.086 65.9663 200.132 65.0829L200.263 62.5895L199.025 62.5246L199.088 61.3157L200.326 61.3806L200.418 59.6311L201.825 59.6932L201.733 61.4543L203.523 61.5481L203.46 62.757L201.67 62.6632L201.536 65.2205C201.499 65.9141 201.77 66.276 202.347 66.3063L203.271 66.3547L203.21 67.523L201.995 67.4593ZM206.955 67.8999C206.401 67.8709 205.918 67.7445 205.506 67.5209C205.099 67.2936 204.786 66.9528 204.569 66.4985C204.352 66.0442 204.261 65.4741 204.297 64.7883L204.465 61.5974L205.86 61.6705L205.694 64.8207C205.665 65.3748 205.761 65.8033 205.983 66.1063C206.208 66.4057 206.553 66.5675 207.018 66.5919C207.483 66.6162 207.841 66.4893 208.093 66.2111C208.344 65.9329 208.484 65.5187 208.513 64.9684L208.678 61.8183L210.079 61.8917L209.912 65.0825C209.876 65.7684 209.726 66.3258 209.463 66.755C209.2 67.1802 208.854 67.4846 208.424 67.668C207.995 67.8514 207.505 67.9287 206.955 67.8999ZM213.668 68.2517C213.141 68.2241 212.67 68.0576 212.255 67.7522C211.839 67.4468 211.522 67.0455 211.304 66.5484C211.085 66.0513 210.991 65.514 211.021 64.9367C211.051 64.3632 211.201 63.8407 211.47 63.3692C211.744 62.8978 212.101 62.5319 212.542 62.2714C212.987 62.0072 213.471 61.8888 213.994 61.9162C214.483 61.9418 214.909 62.071 215.274 62.3038C215.642 62.5329 215.914 62.8386 216.088 63.2207L216.141 62.2094L217.478 62.2794L217.165 68.2543L215.828 68.1842L215.881 67.1787C215.668 67.5406 215.366 67.8161 214.975 68.0055C214.588 68.195 214.152 68.2771 213.668 68.2517ZM214.073 66.9675C214.395 66.9843 214.694 66.9184 214.97 66.7697C215.25 66.6173 215.475 66.4037 215.644 66.129C215.814 65.8503 215.908 65.5386 215.926 65.1938C215.944 64.8528 215.881 64.5367 215.737 64.2455C215.597 63.9507 215.398 63.7129 215.139 63.5323C214.881 63.3517 214.591 63.2529 214.269 63.2361C213.947 63.2192 213.649 63.2832 213.373 63.4281C213.098 63.5691 212.873 63.7768 212.699 64.0513C212.53 64.3261 212.435 64.6456 212.416 65.0098C212.396 65.3856 212.458 65.7191 212.602 66.0103C212.747 66.3015 212.948 66.5297 213.208 66.6948C213.467 66.8599 213.756 66.9508 214.073 66.9675ZM219.25 60.1518L220.657 60.2255L220.228 68.4148L218.821 68.3411L219.25 60.1518ZM222.308 60.312L223.714 60.3858L223.285 68.575L221.878 68.5013L222.308 60.312ZM225.343 69.5629C225.548 69.5737 225.719 69.5496 225.854 69.4906C225.993 69.4319 226.111 69.337 226.207 69.2061C226.307 69.0753 226.408 68.896 226.509 68.6682L226.589 68.4685L224.598 62.6526L226.08 62.7302L227.297 66.4191L227.416 67.0431L227.605 66.4411L229.177 62.8984L230.677 62.9712L228.041 68.6902C227.773 69.2745 227.515 69.7137 227.266 70.0076C227.018 70.3054 226.741 70.5046 226.437 70.6052C226.136 70.7099 225.755 70.7501 225.294 70.726L224.288 70.6733L224.349 69.5109L225.343 69.5629ZM236.609 69.454C236.054 69.4249 235.564 69.2593 235.137 68.9572C234.714 68.6514 234.391 68.2498 234.168 67.7525C233.95 67.2554 233.856 66.7162 233.886 66.135C233.916 65.5538 234.066 65.0293 234.336 64.5616C234.605 64.0901 234.968 63.7245 235.425 63.4648C235.881 63.205 236.392 63.09 236.958 63.1197C237.268 63.1359 237.554 63.2072 237.815 63.3336C238.077 63.4561 238.3 63.6096 238.485 63.7941C238.669 63.9787 238.812 64.1746 238.914 64.382L238.918 63.7586L239.052 61.1954L240.453 61.2688L240.024 69.4523L238.687 69.3822L238.74 68.3767C238.528 68.7076 238.236 68.9759 237.864 69.1817C237.496 69.3878 237.077 69.4785 236.609 69.454ZM236.932 68.1713C237.254 68.1881 237.553 68.1222 237.828 67.9735C238.108 67.8211 238.333 67.6056 238.503 67.3269C238.677 67.0485 238.773 66.7369 238.791 66.3921C238.809 66.0472 238.748 65.7293 238.608 65.4383C238.468 65.1435 238.267 64.9076 238.004 64.7306C237.746 64.55 237.454 64.4511 237.128 64.4341C236.799 64.4168 236.496 64.4825 236.22 64.6313C235.945 64.7761 235.722 64.9859 235.552 65.2607C235.382 65.5354 235.288 65.851 235.269 66.2075C235.251 66.5562 235.31 66.8779 235.446 67.1725C235.582 67.4633 235.78 67.699 236.038 67.8796C236.297 68.0564 236.595 68.1536 236.932 68.1713ZM244.379 69.8612C243.787 69.8302 243.257 69.6606 242.792 69.3526C242.33 69.0447 241.976 68.6435 241.73 68.1488C241.484 67.6502 241.376 67.1103 241.407 66.5291C241.437 65.9518 241.601 65.4281 241.897 64.9579C242.194 64.4878 242.588 64.1238 243.079 63.8659C243.575 63.6082 244.121 63.495 244.717 63.5263C245.318 63.5578 245.851 63.7275 246.317 64.0356C246.782 64.3436 247.138 64.7469 247.384 65.2455C247.63 65.744 247.737 66.282 247.707 66.8593C247.677 67.4405 247.513 67.9662 247.217 68.4363C246.92 68.9065 246.522 69.2703 246.023 69.5277C245.528 69.7815 244.98 69.8927 244.379 69.8612ZM244.46 68.5541C244.793 68.5716 245.095 68.5078 245.367 68.3627C245.643 68.2179 245.864 68.008 246.03 67.733C246.199 67.4583 246.294 67.1427 246.312 66.7862C246.331 66.4336 246.27 66.1118 246.13 65.8208C245.994 65.5262 245.796 65.2924 245.537 65.1195C245.278 64.9428 244.984 64.8458 244.655 64.8285C244.325 64.8113 244.023 64.877 243.747 65.0257C243.471 65.1706 243.248 65.3823 243.078 65.6609C242.912 65.9359 242.82 66.2496 242.802 66.6022C242.783 66.9587 242.842 67.2823 242.978 67.5731C243.118 67.8641 243.316 68.0959 243.571 68.2686C243.83 68.4415 244.126 68.5366 244.46 68.5541ZM249.831 63.0425C249.567 63.0287 249.36 62.942 249.209 62.7826C249.062 62.6195 248.995 62.4217 249.007 62.1892C249.019 61.9606 249.106 61.7748 249.269 61.6318C249.436 61.4851 249.653 61.4188 249.921 61.4328C250.192 61.447 250.403 61.5358 250.554 61.6991C250.705 61.8585 250.774 62.0526 250.762 62.2812C250.75 62.5175 250.66 62.7071 250.493 62.8499C250.327 62.9927 250.106 63.0569 249.831 63.0425ZM249.09 63.9362L250.497 64.0099L250.184 69.9847L248.777 69.911L249.09 63.9362ZM253.484 64.1664L253.435 65.0964C253.627 64.7723 253.91 64.519 254.285 64.3366C254.664 64.1506 255.08 64.0694 255.534 64.0932C256.328 64.1348 256.913 64.418 257.29 64.9429C257.667 65.4677 257.83 66.2048 257.78 67.1541L257.611 70.374L256.205 70.3003L256.372 67.1094C256.402 66.536 256.304 66.1093 256.078 65.8293C255.852 65.5455 255.518 65.392 255.076 65.3689C254.793 65.354 254.528 65.412 254.28 65.5428C254.033 65.6697 253.828 65.8668 253.667 66.1342C253.509 66.398 253.42 66.7177 253.401 67.0936L253.241 70.145L251.834 70.0712L252.147 64.0964L253.484 64.1664ZM261.834 72.8683C261.187 72.8344 260.652 72.6995 260.229 72.4636C259.811 72.228 259.506 71.9322 259.314 71.5764C259.123 71.2245 259.03 70.8466 259.036 70.4428L260.361 70.5123C260.409 70.8567 260.55 71.1303 260.784 71.3329C261.022 71.5396 261.391 71.6561 261.891 71.6823C262.305 71.704 262.65 71.6425 262.926 71.4976C263.205 71.3568 263.414 71.158 263.552 70.901C263.689 70.6479 263.767 70.3566 263.784 70.0273L263.816 69.417C263.599 69.7864 263.305 70.0565 262.934 70.2275C262.564 70.3946 262.149 70.4661 261.688 70.4419C261.133 70.4129 260.642 70.2551 260.215 69.9684C259.791 69.6781 259.467 69.2998 259.242 68.8335C259.022 68.3673 258.926 67.865 258.954 67.3264C258.982 66.7878 259.131 66.2924 259.399 65.8402C259.668 65.3842 260.027 65.028 260.475 64.7718C260.924 64.5155 261.417 64.4015 261.956 64.4298C262.297 64.4476 262.606 64.5202 262.883 64.6473C263.16 64.7707 263.393 64.9286 263.581 65.121C263.773 65.3098 263.918 65.5156 264.015 65.7382L264.068 64.7211L265.405 64.7912L265.128 70.0802C265.098 70.6459 264.949 71.1452 264.682 71.578C264.414 72.0108 264.038 72.3427 263.552 72.5736C263.065 72.8046 262.493 72.9028 261.834 72.8683ZM262.013 69.2351C262.335 69.2519 262.633 69.1879 262.909 69.0431C263.185 68.8982 263.407 68.6962 263.576 68.437C263.749 68.1779 263.844 67.8915 263.86 67.5776C263.876 67.2715 263.814 66.9807 263.673 66.7053C263.532 66.4298 263.33 66.2055 263.067 66.0324C262.808 65.8595 262.517 65.7647 262.196 65.7478C261.87 65.7308 261.57 65.7888 261.295 65.9221C261.02 66.0553 260.798 66.2496 260.629 66.505C260.46 66.7603 260.367 67.0565 260.349 67.3937C260.332 67.723 260.394 68.0254 260.535 68.3009C260.676 68.5764 260.876 68.7967 261.136 68.9618C261.395 69.1269 261.688 69.218 262.013 69.2351ZM93.4468 68.7971L94.958 68.8763L95.9276 72.727L96.0136 73.087L96.0311 73.0879L96.1601 72.7392L97.4921 69.0091L98.5324 69.0636L99.4286 72.8697L99.53 73.2713L99.5474 73.2722L99.7088 72.8611L101.072 69.1967L102.554 69.2744L100.224 75.1436L98.9226 75.0753L97.8816 71.1393L97.8758 71.139L96.4117 74.9437L95.1447 74.8773L93.4468 68.7971ZM105.615 75.6067C105.022 75.5756 104.492 75.4061 104.027 75.098C103.565 74.7902 103.211 74.389 102.965 73.8943C102.719 73.3957 102.612 72.8558 102.642 72.2746C102.672 71.6973 102.836 71.1735 103.132 70.7034C103.429 70.2333 103.823 69.8693 104.314 69.6114C104.81 69.3537 105.356 69.2405 105.952 69.2718C106.553 69.3033 107.086 69.473 107.552 69.7811C108.017 70.0891 108.373 70.4924 108.619 70.991C108.865 71.4895 108.973 72.0275 108.942 72.6048C108.912 73.186 108.748 73.7117 108.452 74.1818C108.155 74.6519 107.757 75.0157 107.258 75.2732C106.763 75.527 106.215 75.6382 105.615 75.6067ZM105.695 74.2996C106.028 74.317 106.33 74.2533 106.602 74.1082C106.878 73.9633 107.099 73.7534 107.265 73.4785C107.434 73.2038 107.529 72.8882 107.547 72.5317C107.566 72.1791 107.505 71.8573 107.365 71.5663C107.229 71.2717 107.031 71.0379 106.772 70.865C106.513 70.6883 106.219 70.5913 105.89 70.574C105.561 70.5568 105.258 70.6225 104.982 70.7712C104.706 70.9161 104.484 71.1278 104.314 71.4064C104.148 71.6813 104.055 71.9951 104.037 72.3477C104.018 72.7042 104.077 73.0278 104.213 73.3186C104.353 73.6096 104.551 73.8414 104.806 74.0141C105.065 74.187 105.361 74.2821 105.695 74.2996ZM111.674 69.7523L111.617 70.8334C111.778 70.5038 111.999 70.2511 112.28 70.0755C112.566 69.8962 112.898 69.8165 113.278 69.8364L113.917 69.8699L113.854 71.0788L113.29 71.0493C112.968 71.0324 112.681 71.0951 112.429 71.2373C112.177 71.3795 111.975 71.5962 111.824 71.8874C111.673 72.1787 111.586 72.5335 111.564 72.952L111.419 75.7302L110.012 75.6565L110.325 69.6816L111.674 69.7523ZM118.515 76.1021L117.104 73.3298L116.109 74.3092L116.022 75.9715L114.615 75.8977L115.044 67.7143L116.451 67.788L116.188 72.798L118.439 70.1069L120.154 70.1967L118.176 72.4651L120.096 76.185L118.515 76.1021ZM126.596 76.7063C126.003 76.6752 125.474 76.5057 125.009 76.1977C124.547 75.8898 124.193 75.4886 123.947 74.9939C123.701 74.4953 123.593 73.9554 123.624 73.3742C123.654 72.7969 123.817 72.2731 124.114 71.803C124.411 71.3329 124.805 70.9689 125.296 70.711C125.791 70.4533 126.337 70.3401 126.934 70.3714C127.535 70.4029 128.068 70.5726 128.533 70.8807C128.999 71.1887 129.355 71.592 129.601 72.0906C129.847 72.5891 129.954 73.1271 129.924 73.7044C129.894 74.2856 129.73 74.8113 129.433 75.2814C129.137 75.7515 128.739 76.1153 128.24 76.3728C127.745 76.6266 127.197 76.7378 126.596 76.7063ZM126.676 75.3992C127.01 75.4167 127.312 75.3529 127.584 75.2078C127.86 75.063 128.081 74.8531 128.246 74.5781C128.416 74.3034 128.511 73.9878 128.529 73.6313C128.548 73.2787 128.487 72.9569 128.347 72.6659C128.211 72.3713 128.013 72.1375 127.754 71.9646C127.495 71.7879 127.201 71.6909 126.872 71.6736C126.542 71.6564 126.24 71.7221 125.964 71.8708C125.688 72.0157 125.465 72.2274 125.295 72.506C125.129 72.781 125.037 73.0947 125.019 73.4473C125 73.8038 125.059 74.1274 125.195 74.4182C125.335 74.7092 125.533 74.941 125.788 75.1137C126.047 75.2866 126.343 75.3817 126.676 75.3992ZM132.644 70.8513L132.595 71.7812C132.787 71.4572 133.07 71.2039 133.445 71.0215C133.824 70.8354 134.24 70.7543 134.693 70.778C135.488 70.8197 136.073 71.1029 136.45 71.6277C136.826 72.1526 136.99 72.8897 136.94 73.839L136.771 77.0589L135.365 76.9852L135.532 73.7943C135.562 73.2208 135.464 72.7941 135.238 72.5142C135.012 72.2304 134.678 72.0769 134.236 72.0537C133.953 72.0389 133.688 72.0969 133.44 72.2277C133.193 72.3546 132.988 72.5517 132.826 72.8191C132.669 73.0828 132.58 73.4026 132.56 73.7785L132.4 76.8298L130.994 76.7561L131.307 70.7812L132.644 70.8513ZM142.335 70.4267C142.071 70.4129 141.864 70.3263 141.713 70.1668C141.566 70.0037 141.499 69.8059 141.511 69.5734C141.523 69.3448 141.611 69.159 141.774 69.016C141.941 68.8694 142.158 68.803 142.425 68.817C142.696 68.8313 142.907 68.92 143.058 69.0833C143.209 69.2428 143.278 69.4368 143.266 69.6654C143.254 69.9018 143.164 70.0913 142.998 70.2341C142.831 70.3769 142.61 70.4411 142.335 70.4267ZM141.594 71.3204L143.001 71.3941L142.688 77.369L141.281 77.2953L141.594 71.3204ZM151.984 71.6842C152.724 71.723 153.269 72.0041 153.619 72.5275C153.972 73.0511 154.124 73.7876 154.074 74.7369L153.905 77.9568L152.516 77.884L152.683 74.6932C152.713 74.1236 152.625 73.6974 152.418 73.4146C152.215 73.132 151.913 72.9801 151.51 72.959C151.258 72.9458 151.017 73.0109 150.788 73.1543C150.56 73.2939 150.37 73.4976 150.22 73.7656C150.074 74.0338 149.992 74.3423 149.973 74.691L149.814 77.7424L148.424 77.6696L148.592 74.4787C148.622 73.9092 148.533 73.483 148.326 73.2002C148.124 72.9176 147.823 72.7658 147.424 72.7449C147.172 72.7317 146.931 72.7968 146.702 72.9402C146.474 73.0797 146.284 73.2835 146.134 73.5515C145.988 73.8197 145.906 74.1282 145.888 74.4769L145.728 77.5283L144.339 77.4555L144.652 71.4806L145.965 71.5494L145.934 72.4803C146.11 72.1631 146.374 71.9108 146.725 71.7233C147.077 71.532 147.468 71.4476 147.898 71.4701C148.394 71.4961 148.803 71.6321 149.124 71.8782C149.446 72.1243 149.678 72.4725 149.821 72.923C150.097 72.4828 150.417 72.1616 150.781 71.9592C151.149 71.7531 151.55 71.6615 151.984 71.6842ZM157.159 72.1361L157.107 73.1416C157.343 72.7888 157.646 72.5171 158.018 72.3268C158.393 72.1328 158.794 72.0469 159.22 72.0693C159.774 72.0983 160.265 72.2658 160.692 72.5718C161.122 72.878 161.449 73.2798 161.672 73.7772C161.898 74.2708 161.997 74.8063 161.966 75.3837C161.936 75.9649 161.782 76.4911 161.505 76.9622C161.228 77.4295 160.861 77.793 160.404 78.0527C159.952 78.3126 159.452 78.4282 158.906 78.3996C158.476 78.377 158.086 78.2537 157.736 78.0294C157.387 77.8013 157.121 77.5076 156.937 77.1483L156.93 77.8415L156.809 80.1547L155.403 80.081L155.823 72.066L157.159 72.1361ZM158.718 77.0901C159.036 77.1067 159.332 77.0465 159.608 76.9094C159.883 76.7684 160.108 76.5607 160.281 76.2861C160.455 76.0116 160.552 75.6864 160.571 75.3106C160.591 74.9463 160.528 74.6186 160.384 74.3275C160.244 74.0365 160.042 73.8064 159.779 73.6372C159.52 73.4643 159.23 73.3694 158.908 73.3526C158.59 73.3359 158.292 73.4038 158.012 73.5562C157.736 73.7049 157.511 73.9185 157.337 74.1969C157.167 74.4755 157.073 74.7853 157.055 75.1263C157.036 75.4828 157.099 75.8085 157.243 76.1036C157.387 76.3948 157.588 76.6287 157.847 76.8055C158.11 76.9786 158.4 77.0734 158.718 77.0901ZM165.747 78.7581C165.154 78.727 164.625 78.5575 164.159 78.2494C163.697 77.9416 163.343 77.5404 163.097 77.0457C162.851 76.5471 162.744 76.0072 162.774 75.426C162.804 74.8487 162.968 74.3249 163.265 73.8548C163.561 73.3847 163.955 73.0207 164.447 72.7628C164.942 72.5051 165.488 72.3919 166.085 72.4232C166.685 72.4547 167.218 72.6244 167.684 72.9325C168.15 73.2405 168.505 73.6438 168.751 74.1424C168.997 74.6409 169.105 75.1789 169.075 75.7562C169.044 76.3374 168.881 76.8631 168.584 77.3332C168.287 77.8033 167.889 78.1671 167.39 78.4246C166.895 78.6784 166.347 78.7896 165.747 78.7581ZM165.827 77.451C166.16 77.4684 166.463 77.4047 166.734 77.2596C167.01 77.1147 167.231 76.9048 167.397 76.6299C167.567 76.3552 167.661 76.0396 167.68 75.6831C167.698 75.3305 167.637 75.0087 167.497 74.7177C167.361 74.4231 167.163 74.1893 166.904 74.0164C166.646 73.8397 166.352 73.7427 166.022 73.7254C165.693 73.7081 165.39 73.7739 165.114 73.9226C164.839 74.0675 164.616 74.2792 164.446 74.5578C164.28 74.8327 164.188 75.1465 164.169 75.4991C164.15 75.8556 164.209 76.1792 164.346 76.47C164.486 76.761 164.683 76.9928 164.939 77.1655C165.198 77.3383 165.494 77.4335 165.827 77.451ZM171.806 72.9037L171.749 73.9848C171.91 73.6552 172.131 73.4025 172.413 73.2269C172.698 73.0476 173.03 72.9679 173.41 72.9878L174.049 73.0213L173.986 74.2302L173.422 74.2007C173.101 74.1838 172.814 74.2465 172.562 74.3887C172.309 74.5309 172.108 74.7476 171.956 75.0388C171.805 75.3301 171.718 75.6849 171.697 76.1034L171.551 78.8816L170.144 78.8079L170.458 72.833L171.806 72.9037ZM177.473 79.192C176.904 79.1622 176.439 78.9804 176.08 78.6469C175.721 78.3095 175.564 77.699 175.611 76.8156L175.741 74.3222L174.503 74.2573L174.567 73.0484L175.805 73.1133L175.896 71.3638L177.303 71.4259L177.211 73.187L179.001 73.2808L178.938 74.4897L177.148 74.3959L177.014 76.9532C176.977 77.6468 177.248 78.0087 177.825 78.039L178.749 78.0874L178.688 79.2557L177.473 79.192ZM182.044 79.6122C181.517 79.5846 181.046 79.4181 180.631 79.1127C180.215 78.8073 179.898 78.406 179.68 77.9089C179.461 77.4117 179.367 76.8745 179.397 76.2972C179.427 75.7237 179.577 75.2012 179.846 74.7296C180.12 74.2583 180.477 73.8924 180.918 73.6318C181.363 73.3677 181.847 73.2493 182.37 73.2767C182.858 73.3023 183.285 73.4315 183.65 73.6643C184.018 73.8934 184.29 74.199 184.464 74.5812L184.517 73.5699L185.854 73.6399L185.541 79.6148L184.204 79.5447L184.257 78.5392C184.043 78.9011 183.741 79.1766 183.351 79.366C182.964 79.5555 182.528 79.6376 182.044 79.6122ZM182.449 78.328C182.771 78.3448 183.07 78.2789 183.346 78.1301C183.626 77.9777 183.85 77.7642 184.02 77.4894C184.19 77.2108 184.284 76.8991 184.302 76.5542C184.32 76.2133 184.257 75.8972 184.113 75.606C183.973 75.3112 183.774 75.0734 183.515 74.8928C183.257 74.7122 182.966 74.6134 182.645 74.5966C182.323 74.5797 182.025 74.6437 181.749 74.7886C181.473 74.9295 181.249 75.1373 181.075 75.4118C180.905 75.6866 180.811 76.006 180.792 76.3703C180.772 76.7461 180.834 77.0796 180.978 77.3708C181.122 77.662 181.324 77.8902 181.584 78.0553C181.843 78.2204 182.132 78.3113 182.449 78.328ZM188.847 73.7968L188.798 74.7267C188.99 74.4026 189.273 74.1494 189.648 73.967C190.027 73.7809 190.443 73.6998 190.897 73.7235C191.691 73.7652 192.276 74.0484 192.653 74.5732C193.03 75.0981 193.193 75.8351 193.143 76.7845L192.974 80.0044L191.568 79.9307L191.735 76.7398C191.765 76.1663 191.667 75.7396 191.441 75.4597C191.215 75.1759 190.881 75.0224 190.439 74.9992C190.156 74.9844 189.891 75.0424 189.643 75.1732C189.396 75.3001 189.191 75.4972 189.03 75.7646C188.872 76.0283 188.783 76.3481 188.764 76.7239L188.604 79.7753L187.197 79.7016L187.51 73.7267L188.847 73.7968ZM196.909 80.2106C196.34 80.1807 195.875 79.999 195.516 79.6655C195.157 79.3281 195 78.7176 195.046 77.8342L195.177 75.3408L193.939 75.2759L194.002 74.067L195.24 74.1319L195.332 72.3824L196.739 72.4445L196.647 74.2056L198.437 74.2994L198.374 75.5083L196.584 75.4145L196.45 77.9718C196.413 78.6654 196.684 79.0273 197.261 79.0576L198.185 79.106L198.124 80.2742L196.909 80.2106ZM204.628 80.6151C204.058 80.5852 203.594 80.4035 203.234 80.07C202.875 79.7326 202.719 79.1221 202.765 78.2387L202.896 75.7453L201.658 75.6804L201.721 74.4715L202.959 74.5364L203.051 72.7869L204.458 72.849L204.365 74.6101L206.156 74.7039L206.092 75.9128L204.302 75.819L204.168 78.3763C204.132 79.0699 204.402 79.4318 204.98 79.4621L205.904 79.5105L205.842 80.6788L204.628 80.6151ZM208.817 72.6287L208.689 75.064L208.62 75.7305C208.827 75.4073 209.11 75.1598 209.469 74.9882C209.827 74.8128 210.232 74.7368 210.681 74.7604C211.475 74.802 212.061 75.0853 212.437 75.6101C212.814 76.1349 212.977 76.872 212.928 77.8213L212.759 81.0412L211.352 80.9675L211.52 77.7767C211.55 77.2032 211.452 76.7765 211.225 76.4965C210.999 76.2127 210.665 76.0592 210.224 76.0361C209.949 76.0217 209.685 76.0856 209.433 76.2278C209.185 76.3663 208.98 76.5692 208.818 76.8366C208.656 77.104 208.566 77.4121 208.548 77.7608L208.388 80.8122L206.982 80.7385L207.411 72.555L208.817 72.6287ZM215.417 74.2567C215.153 74.2429 214.946 74.1563 214.795 73.9969C214.648 73.8338 214.581 73.636 214.593 73.4035C214.605 73.1749 214.692 72.9891 214.855 72.8461C215.022 72.6994 215.239 72.6331 215.507 72.6471C215.778 72.6613 215.989 72.7501 216.14 72.9134C216.291 73.0728 216.36 73.2669 216.348 73.4955C216.336 73.7318 216.246 73.9214 216.079 74.0642C215.913 74.207 215.692 74.2712 215.417 74.2567ZM214.676 75.1504L216.083 75.2241L215.77 81.199L214.363 81.1253L214.676 75.1504ZM219.07 75.3807L219.021 76.3107C219.213 75.9866 219.497 75.7333 219.871 75.5509C220.25 75.3648 220.666 75.2837 221.12 75.3075C221.914 75.3491 222.499 75.6323 222.876 76.1572C223.253 76.682 223.416 77.4191 223.366 78.3684L223.197 81.5883L221.791 81.5146L221.958 78.3237C221.988 77.7503 221.89 77.3236 221.664 77.0436C221.438 76.7598 221.104 76.6063 220.662 76.5831C220.379 76.5683 220.114 76.6263 219.866 76.7571C219.619 76.884 219.414 77.0811 219.253 77.3485C219.095 77.6122 219.006 77.932 218.987 78.3079L218.827 81.3592L217.42 81.2855L217.733 75.3107L219.07 75.3807ZM227.42 84.0826C226.773 84.0486 226.238 83.9138 225.816 83.6779C225.397 83.4423 225.092 83.1465 224.9 82.7907C224.709 82.4388 224.616 82.0609 224.622 81.6571L225.947 81.7266C225.995 82.071 226.136 82.3445 226.37 82.5472C226.608 82.7539 226.977 82.8704 227.477 82.8966C227.891 82.9183 228.236 82.8567 228.512 82.7119C228.791 82.5711 229 82.3722 229.138 82.1153C229.275 81.8621 229.353 81.5709 229.37 81.2416L229.402 80.6313C229.185 81.0007 228.891 81.2708 228.52 81.4418C228.15 81.6089 227.735 81.6804 227.274 81.6562C226.719 81.6272 226.228 81.4693 225.801 81.1827C225.377 80.8924 225.053 80.5141 224.828 80.0477C224.608 79.5816 224.512 79.0792 224.54 78.5406C224.569 78.0021 224.717 77.5067 224.985 77.0545C225.254 76.5984 225.613 76.2423 226.061 75.9861C226.51 75.7298 227.003 75.6158 227.542 75.644C227.883 75.6619 228.192 75.7344 228.469 75.8616C228.746 75.9849 228.979 76.1428 229.167 76.3353C229.359 76.5241 229.504 76.7298 229.601 76.9525L229.654 75.9354L230.991 76.0054L230.714 81.2945C230.684 81.8602 230.535 82.3595 230.268 82.7923C230.001 83.2251 229.624 83.5569 229.138 83.7879C228.651 84.0189 228.079 84.1171 227.42 84.0826ZM227.599 80.4494C227.921 80.4662 228.219 80.4022 228.495 80.2574C228.771 80.1125 228.993 79.9105 229.162 79.6512C229.335 79.3922 229.43 79.1058 229.446 78.7919C229.462 78.4858 229.4 78.195 229.259 77.9195C229.118 77.6441 228.916 77.4198 228.653 77.2467C228.394 77.0738 228.103 76.979 227.782 76.9621C227.456 76.945 227.156 77.0031 226.881 77.1364C226.606 77.2696 226.384 77.4639 226.215 77.7192C226.046 77.9746 225.953 78.2708 225.936 78.6079C225.918 78.9373 225.98 79.2397 226.121 79.5152C226.262 79.7907 226.462 80.011 226.722 80.1761C226.981 80.3412 227.274 80.4323 227.599 80.4494ZM234.475 82.36C233.917 82.3308 233.45 82.2091 233.072 81.9951C232.695 81.781 232.42 81.5102 232.246 81.1825C232.073 80.8548 231.996 80.5089 232.015 80.1446L233.363 80.2211C233.36 80.5085 233.458 80.7467 233.658 80.9359C233.862 81.1215 234.158 81.2244 234.545 81.2447C234.898 81.2632 235.167 81.2112 235.352 81.0888C235.537 80.9625 235.636 80.7812 235.649 80.5449C235.657 80.3821 235.617 80.2499 235.529 80.1481C235.442 80.0425 235.31 79.9579 235.135 79.8943C234.959 79.8307 234.724 79.7679 234.428 79.7057C233.781 79.5864 233.272 79.3732 232.899 79.0661C232.527 78.7591 232.356 78.3189 232.386 77.7454C232.405 77.3773 232.509 77.0603 232.698 76.7943C232.887 76.5244 233.154 76.3228 233.499 76.1893C233.844 76.052 234.255 75.9959 234.732 76.0208C235.208 76.0458 235.624 76.1492 235.98 76.331C236.336 76.509 236.607 76.7485 236.793 77.0497C236.98 77.3509 237.063 77.6894 237.043 78.0652L235.666 77.9814C235.663 77.752 235.575 77.5648 235.404 77.4199C235.237 77.2712 234.995 77.1886 234.677 77.1719C234.39 77.1569 234.17 77.2075 234.016 77.3238C233.863 77.4401 233.781 77.5951 233.771 77.7888C233.762 77.9438 233.789 78.0676 233.85 78.1602C233.912 78.2489 234.028 78.3288 234.199 78.3999C234.37 78.4672 234.631 78.5372 234.981 78.6099C235.442 78.704 235.826 78.8213 236.134 78.9617C236.445 79.1024 236.687 79.2996 236.86 79.5535C237.033 79.8073 237.109 80.1357 237.088 80.5387C237.066 80.9649 236.939 81.3196 236.706 81.6027C236.478 81.8822 236.172 82.0856 235.788 82.2132C235.405 82.3369 234.967 82.3858 234.475 82.36ZM238.575 78.3145L238.776 74.4785L240.223 74.5544L240.021 78.3962L239.73 80.0652L238.684 80.0104L238.575 78.3145ZM239.081 82.5606C238.84 82.548 238.648 82.4641 238.505 82.3089C238.362 82.1499 238.296 81.9619 238.307 81.7449C238.315 81.6015 238.355 81.4735 238.427 81.3607C238.503 81.2442 238.604 81.1544 238.732 81.0911C238.86 81.0279 239.003 81.0004 239.162 81.0087C239.325 81.0173 239.466 81.0596 239.586 81.1359C239.711 81.2123 239.805 81.3124 239.868 81.4362C239.932 81.5561 239.96 81.6877 239.952 81.8311C239.941 82.052 239.853 82.232 239.691 82.3711C239.528 82.5102 239.325 82.5734 239.081 82.5606Z" fill="#141414"/>
</g>
<defs>
<filter id="filter0_d_214_407" x="0.915554" y="0.330083" width="326.196" height="140.085" filterUnits="userSpaceOnUse" color-interpolation-filters="sRGB">
<feFlood flood-opacity="0" result="BackgroundImageFix"/>
<feColorMatrix in="SourceAlpha" type="matrix" values="0 0 0 0 0 0 0 0 0 0 0 0 0 0 0 0 0 0 127 0" result="hardAlpha"/>
<feOffset dy="1.6555"/>
<feGaussianBlur stdDeviation="19.866"/>
<feColorMatrix type="matrix" values="0 0 0 0 0 0 0 0 0 0 0 0 0 0 0 0 0 0 0.1 0"/>
<feBlend mode="normal" in2="BackgroundImageFix" result="effect1_dropShadow_214_407"/>
<feBlend mode="normal" in="SourceGraphic" in2="effect1_dropShadow_214_407" result="shape"/>
</filter>
</defs>
</svg>
